/* XPM */
static char *M_Idle_ezgif_com_crop1704877345[] = {
/* columns rows colors chars-per-pixel */
"64 64 10 1 ",
"  c None",
". c #161C2E",
"X c #B45076",
"o c #977B6B",
"O c #EF515C",
"+ c #F9856C",
"@ c #D5B583",
"# c #FFBC88",
"$ c #EFE1AB",
"% c white",
/* pixels */
"                                                                ",
"                                                                ",
"                                                                ",
"                                                                ",
"                                                                ",
"                                                                ",
"                                                                ",
"                                                                ",
"                                                                ",
"                                                                ",
"                                                                ",
"                                                                ",
"                                                                ",
"                                                                ",
"                                                                ",
"                             .............                      ",
"                          ....................                  ",
"                        .........OO+++OOO......                 ",
"                       ......OOOOOO+++OOOOOO.....               ",
"                      ....OOOOOXXXXX++OOOOOOOO....              ",
"                     ....OOOOXXXXXXXX+OXXXOOOOO.....            ",
"                     ...OOOXXXXXXXXXX+OXXXXOOOOO.....           ",
"                    ...OOOOXXXXXXXXXXOOOXXXOOOOO++...           ",
"                    ..+OOOOXXOOXXXX.....OXXOOOOO++O...          ",
"                    ..+OOOOOOOOOOO..%%%..OOOOOO+++O....         ",
"                   ..++#OOOOOOOOO..%%%%@..OOOO#++OOO...         ",
"                   ..++##OOOOOOOO..%%oo@..#####++OOOO..         ",
"                 ...XX+##OOO++##+..@ooo@..###++OOOOOO..         ",
"                ...XXXX+##++++##+...@@@...++OOOOXXXOO..         ",
"              ....OOXXXO##+OOOOOOO.......OOOXXOXXXXOO..         ",
"            ....OOOOXXX+##+XXXOOOOO.....OOOXXXXXXXXXO...        ",
"          .....OOOOOOXX###XXXXOOOOOOOO+++OOXXXXXXXXXO...        ",
"         ....OOOOOOOOOO##XXXXOOOOOOOOO++++OXXXXXXXXXO...        ",
"        ....OOOOOOOOOO###XXXXOOOOOOOOOOO++OOXXXXXXXOO...        ",
"        ...OOOOOOOOOOO##+XXOOOOOOXXXOOOO+++OXXXXXXOO....        ",
"       ....+++OOOOOOO###XXOOOOOXXXXXXOOO+++OOXXXOO......        ",
"       ...O++##OOO+++OOOOOOOXXXXXXXXXOOOO++OOOOOOO...o..        ",
"       ..OOO#####++++OOOOOOOXXXXX++XXOOOO##OOOOO....oo..        ",
"       ..OOOOO###++OOOO+OOOXXXXX+++XXOOOO##OOOOoooooo...        ",
"       ..OOXXXXOOOOOOOO++OOXXXXX+++XXOOO+##O.oooooooo..         ",
"       ...OXXXXXXOOOOO+++OXXXX.......OOO+++.oooo@@ooo..         ",
"       ...OOXXXXXXOOOOO++XX.......oooooo....o$$@@@oo...         ",
"       ...OOOXXXXXXOOOO+.......ooo@ooooo...$$$$@@@o...          ",
"       ......OOXXXXOOOooo..ooooooo@@@@$$$$$$$$$@@....           ",
"       .......OOOOOooooo@@oooooooo@@@@@$$$$$$$$$....            ",
"       ...o......ooo$@@@@@oooooooo@@@@@$$$$$$$.....             ",
"       ...ooo....oo$$$@@@@@.......@@@@@$$$........              ",
"        ...ooooo@@@$$$@@.......................                 ",
"         ....ooo@@@$$$.....      ..........                     ",
"          ......@@@......                                       ",
"           .............                                        ",
"              .......                                           ",
"                                                                ",
"                                                                ",
"                                                                ",
"                                                                ",
"                                                                ",
"                                                                ",
"                                                                ",
"                                                                ",
"                                                                ",
"                                                                ",
"                                                                ",
"                                                                "
};
