/* XPM */
static char *_2a70c1488a646eafa8ab048fa9d6a2er6OhoZ78tKTg9juM[] = {
/* columns rows colors chars-per-pixel */
"64 64 5 1 ",
"  c #9BB94E",
". c #79A863",
"X c #BFBA5B",
"o c #679175",
"O c white",
/* pixels */
"    .........................                  XXXX             ",
".......   ...............XXX.                 XXXXXX            ",
"......     .......      XXXXX             XXXXXXXXXXXXX    .....",
"           ....     XX  XXXXXX              XXXX   XXXXX        ",
"                  XXXXXXXXXXXX                X     XXXXX       ",
"                 XXXXXXXX...XXXXXX                              ",
"                .............XXXXXXXXXX...                      ",
"               .....  .........................                 ",
"            ......     .................................        ",
"                          ..........................            ",
"                           ...    ............                  ",
"  ooooo    ooooo      XXX  ..      .   ..                       ",
"oooooooo  ooooooo    XXXXX ..                                   ",
"ooXXXoooooooXXXXoo  XXXXXXXX..             XXXXX               o",
"oXXXXXXooooXXXXXXXo XXXXXXXXX         XXXXXXXXXX     ooooo  oooo",
"oXXXXXXXXoXXXXXXXXXXXXXXXXXXX      XXXXXXXXXXXX     oooooooooooo",
"ooXXXXXXXXXXXXXXXXXXXXXXXXXXXXX    XXXXXXXXXX   oo oooXXoooooXXo",
"XoXXXXXXXXXXXXXXXXXXXXXXXXXXXXX                ooooooXXXXoooXXXX",
"XXXXXXXXXXXXXX    XXXXX..XXXXXXXXX             ooXXooXXXXXXXXXXX",
"XXXXX....XXXX      XXX....XXXXXXXXX        XXoooXXXXXXXXXXXXXXXX",
" XXX......  X       ......XXXXXX         XXXXXXXXXXXX   XXXXX   ",
"..........       .........             XXXXXXXXXXXXX     XXX   .",
".........       ...........           XXX   XXXXXX       XXX  ..",
".............  ......  .....        XXXX     XXX           X  ..",
"....................     .....                              ....",
"   .................                                  ..........",
"    ..   .......  ..                  ...                ...... ",
"    .      ....    ..                .....                  ... ",
"                              ...   ......            XX        ",
"X                            .............           XXXX    XXX",
"XXX        ....             .................      XXXXXXXXXXXXX",
"....  ...........  ....    .......................XXXXXXXXXXXXXX",
"................................................     XXXXXXXXXX.",
"   .....................oooo.................         XXXXXX ...",
"       ................oooooo        oooo...      XXXXXXXXX     ",
"  .................ooo.ooooooooooo  ooooooo.    XXXXXXXXXXX     ",
"    ..............oooooooooooooooooooXXXoooo   XXXXXXXXXXX      ",
"      ...........oooooXXXXooooXXXXooXXXXXooooXXX     XXXXX      ",
"          .......oooXXXXXXXooXXXXXXXXXXXXXXXXX        XXXXX XX  ",
"          .....ooooXXXXXXXXoXXXXXXXXXXXXXXXXXX          XXXXXXX ",
"           XXXXXXoXXXXXXXXXXXXXXXXXXXXXXXXXXXX XXX       XXX   X",
"          XX  XXXXXXXXXXXXXXXXXXXXXXXXXXXXXXXXXXXXX             ",
"          X    XXXXXXXX   XXXXX  XXXX  XXXXXXXXXXXX   XX        ",
"                   XXX     XX      X    XXXXXXXXXXX  XXXXX      ",
"XXX                 XX     X            XXXXXXXXXXXXXXXXXXXXXXXX",
"                           X            XXXXX   XXXXXXXXX       ",
"..                                                          ....",
"... ....      XXX                                         ......",
".........   XXXXXX          ...                         ........",
".........XXXXXXXXXXXXX...  .....                       .........",
"............XXXXXXXXX.......  ...      ...           ......     ",
" ...   .......XXX.....  ...    ...    .....   ..   .......      ",
" ..                                  ............               ",
"                      ..     ....    ...............            ",
"       oooooo   ooo ..... ........  ....   .....                ",
"oo   XXXXooooo ooooo...................                 ooooo  o",
"ooo XXXXXXXooooooXXoo..................                ooooooooo",
"XooXXXXXXXXXooooXXXXooXX...  ..   ....               oooXXXXoooX",
"XXXXXXXXXXXXXooXXXXXXXXXX..        ..........     ooooXXXXXXXXXX",
"XXXXXXX...XXXXoXX  XXXXXXXX        .............XooXXXXXXXXXXXXX",
"XXXXXX.....XXXXX    XXXXXXXXX      .....XXXXXXXXXXXXXXXXXX...XXX",
"X.............           XXX      ..XXXXXXXXXXXX      XX.......X",
".................                                           ....",
"....................   ......                                   "
};
