/* XPM */
static char *_5c2ac4dee2b423edc487f3f8606e0a44JIyLLO5tpOZRbfN[] = {
/* columns rows colors chars-per-pixel */
"64 64 207 2 ",
"   c #2B2928",
".  c #44453D",
"X  c #46483E",
"o  c #48483E",
"O  c #3A3D43",
"+  c #444740",
"@  c #454942",
"#  c #4B4C44",
"$  c #4D4E49",
"%  c #534D47",
"&  c #4F5048",
"*  c #515047",
"=  c #54544B",
"-  c #5B554D",
";  c #59594F",
":  c #48515D",
">  c #5C5B52",
",  c #575958",
"<  c #62594E",
"1  c #625E55",
"2  c #656156",
"3  c #696155",
"4  c #666259",
"5  c #6A655C",
"6  c #6D695E",
"7  c #736356",
"8  c #7E6757",
"9  c #73665B",
"0  c #726A5E",
"q  c #7B6B5E",
"w  c #525964",
"e  c #6C6760",
"r  c #6E6A61",
"t  c #656A68",
"y  c #6C6C6D",
"u  c #736C63",
"i  c #796E63",
"p  c #756F69",
"a  c #757166",
"s  c #797166",
"d  c #767169",
"f  c #7B756B",
"g  c #7E786E",
"h  c #67727D",
"j  c #7E7770",
"k  c #7D7971",
"l  c #82766C",
"z  c #887468",
"x  c #82796D",
"c  c #8A7A6F",
"v  c #847C73",
"b  c #897E74",
"n  c #927E72",
"m  c #7F8179",
"M  c #8B8175",
"N  c #8B8877",
"B  c #86827A",
"V  c #8C847A",
"C  c #8E8A7E",
"Z  c #948475",
"A  c #91867B",
"S  c #9C877A",
"D  c #948A7E",
"F  c #9B8B7C",
"G  c #A18E7E",
"H  c #A5947D",
"J  c #697683",
"K  c #717B87",
"L  c #748493",
"P  c #7C8997",
"I  c #8D8B82",
"U  c #898B89",
"Y  c #958C82",
"T  c #998E83",
"R  c #928F8B",
"E  c #8F918A",
"W  c #949286",
"Q  c #9C9285",
"!  c #95938C",
"~  c #9C948B",
"^  c #9D998D",
"/  c #848C96",
"(  c #89929E",
")  c #959493",
"_  c #9C9693",
"`  c #9C9B93",
"'  c #9D9C9B",
"]  c #A18F82",
"[  c #A29384",
"{  c #A2968B",
"}  c #A69A8D",
"|  c #A89C8E",
" . c #A29791",
".. c #A59B93",
"X. c #AA9D93",
"o. c #AC9E95",
"O. c #AC9F96",
"+. c #A59E99",
"@. c #A49E9A",
"#. c #A99E99",
"$. c #AEA18F",
"%. c #B1A38C",
"&. c #A5A196",
"*. c #ACA095",
"=. c #ACA196",
"-. c #A5A29C",
";. c #A9A19B",
":. c #AEA299",
">. c #ACA39B",
",. c #A9A29E",
"<. c #AFA59F",
"1. c #A7A89E",
"2. c #ACA99E",
"3. c #B1A696",
"4. c #B3A897",
"5. c #B2A69C",
"6. c #B1A59E",
"7. c #B3A99E",
"8. c #BAAC9E",
"9. c #8493A3",
"0. c #8B9AA8",
"q. c #9C9DA0",
"w. c #8D9FB0",
"e. c #9AA4AC",
"r. c #8DA0B1",
"t. c #9BA6B3",
"y. c #9BA8B6",
"u. c #9CADBC",
"i. c #A3A3A3",
"p. c #ABA6A1",
"a. c #A6A8A6",
"s. c #ACABA3",
"d. c #ABACAA",
"f. c #B1A6A0",
"g. c #B3ABA2",
"h. c #BCAFA3",
"j. c #B2AEA9",
"k. c #AFB0A7",
"l. c #AFB1AA",
"z. c #B5B0A6",
"x. c #BBB3A6",
"c. c #B4B3AC",
"v. c #BAB5AC",
"b. c #BCB8AD",
"n. c #A3ABB4",
"m. c #A8ADB7",
"M. c #A9B1B7",
"N. c #ABB4BC",
"B. c #B5B6B1",
"V. c #BAB7B1",
"C. c #B7B9B3",
"Z. c #BBBAB4",
"A. c #B5B8BA",
"S. c #BCBDBA",
"D. c #C3B9AB",
"F. c #C2BDB4",
"G. c #CABEB0",
"H. c #C0BFBA",
"J. c #BEC0BC",
"K. c #C4C1B7",
"L. c #C9C1B6",
"P. c #C3C2BC",
"I. c #CAC5BC",
"U. c #9FB0C0",
"Y. c #A3B3C4",
"T. c #AAB5C4",
"R. c #A7B8C6",
"E. c #ABBCCC",
"W. c #B7BCC5",
"Q. c #B3BECB",
"!. c #BDC1C2",
"~. c #B2C0CD",
"^. c #BCC4CD",
"/. c #AFC0D0",
"(. c #B4C4D3",
"). c #B8C6D3",
"_. c #BDC9D4",
"`. c #BDCBD8",
"'. c #C4C5C3",
"]. c #C9C6C1",
"[. c #C6C8C6",
"{. c #CBCAC5",
"}. c #C4C7C9",
"|. c #C6C9C9",
" X c #CCCDCB",
".X c #D3CDC5",
"XX c #D1CFCB",
"oX c #CED1CE",
"OX c #D3D2CD",
"+X c #D9D6CF",
"@X c #C2CCD5",
"#X c #C9CED1",
"$X c #C2CFD9",
"%X c #CDD2D3",
"&X c #C5D2DC",
"*X c #C9D4DD",
"=X c #D3D4D3",
"-X c #DAD9D5",
";X c #D4D8DA",
":X c #DEDEDC",
">X c #CCD6E0",
",X c #CED9E2",
"<X c #D3DDE4",
"1X c #D6E0E7",
"2X c #D9E1E7",
"3X c #DCE3E9",
"4X c #E1E6EB",
/* pixels */
"T T T Y I T Z d d n u r u u u u d x M D T { } X.X.X.o.o.X.X.X.X.o.o.#.o.o.o.:.o.o.:.:.:.5.5.f.f.f.<.:.#.+... ._ _  . .+.+.+.+.+.",
"T T Y A V v G f b q 2 5 5 5 6 0 s x M A T [ } X.X.X.o.o.X.X.X.X.X.o.o.X.X.o.o.o.o.o.*.:.5.5.5.5.<.<.:.#.+... ._  .....+.+.&.,.,.",
"Y Y Y V v g b A z 1 1 1 2 2 5 6 d l b A T { } X.X.X.o.o.o.X.X.X.X.o.X.X.X.X.X.X.X.o.o.:.:.:.:.:.:.:.;.#.+.+. . .....+.#.,.p.p.s.",
"Y Y V v k d d T q > > 1 2 2 4 6 d l b A T [ } X.X.X.o.o.o.X.X.X.o.o.X.X.X.X.X.X.X.o.o.*.:.:.*.o.#.#.#.+.o.#.+. ...+.#.#.,.p.s.g.",
"Y A V v g u r D 5 > > 1 1 2 4 6 d l b A T [ } X.X.X.o.o.o.X.X.X.o.o.X.X.} X.X...X.o.o.*.:.:.*.o.o.X...X.+.#.+...+.+.;.;.<.p.g.j.",
"A V v g d r 5 V 5 ; > > 1 2 2 6 u g b A T [ } X.X.X.o.o.*.X.X.X.o.X.X.X.X.X.X.X.X.o.*.*.:.:.*.*.o.X.X. .X.#.#.+.+.;.,.:.<.p.g.j.",
"V V v f u 5 2 v 0 ; > > 1 1 2 5 u l b A T [ } X.X.X.o.o.*.X.X.o.o.X.X.} X.X.X.X.X.*.*.:.:.:.:.:.:.o.X.{ X.+.#.#.;.;.:.:.<.p.g.j.",
"V v g d 6 2 1 d s > > > 1 1 2 5 u g b V D Q } X.X.X.o.*.*.o.X.o.X.X.X.} } X.X...X.*.*.:.5.5.5.5.:.o.X.{  ...+.+.#.,.,.p.:.<.s.g.",
"M v f u 5 2 > u l ; > > 1 1 2 5 u g v A Y Q } { X.o.o.*.*.o.o.o.X.X.X.} } X.X.X.X.*.*.5.5.5.5.5.:.*.X.}  . .....#.#.,.:.:.:.p.s.",
"v g d 6 5 2 > u c ; > 1 1 1 1 5 u g v V Y Q ] S o.o.o.*.*.o.o.X.X.X.X.} X.X.X.X.o.*.*.5.5.5.5.5.:.o.o.X. . . . .+.+.;.;.#.#.,.p.",
"v g u 6 9 7 1 s n ; > > 1 1 1 5 u f v V D ] S [ X.o.*.*.*.*.X.X.X.X.X.X.X.X.X.X.o.*.5.5.5.5.5.5.5.:.o.X.X. . . .X.+.+.+.+.+.#.,.",
"x d u 6 i 8 3 5 F > > > > 1 1 2 0 f v V A S [ X.X.o.*.*.*.*.X.X.X.X.X.X.} X.X.X.o.*.5.5.5.5.7.7.5.:.*.o...X.X. . ...+...+.+.#.#.",
"g d u 6 q 8 2 > F 2 > > > > 1 2 6 f x M Z F { X.X.*.*.*.*.*.X.X.X.X.X.X.} X.X.X.*.*.5.5.5.7.7.7.5.5.:.o.+.X.X.X. .X.X.X...+.+.#.",
"d u u 0 9 9 1 > M u > > > > 1 2 6 d x b S T { | X.*.*.o.o.o.X.X.X.} X.X.X.X.X.X.*.:.5.5.7.7.7.7.5.5.:.*.;.o.....X.X. . .....+.+.",
"d u u i 7 5 2 1 s c > > > ; > 2 6 d v c F T { } X.o.*.*.o.o.X.X...} X.} X.X.X.X.*.*.5.5.7.7.7.7.7.5.5.:.:.#.o.X.X.X.X. . ...+.#.",
"d u u q 9 5 2 1 6 F > ; ; ; > 1 6 f Z Z A T ~ } X.o.o.o.o.o.X.X.X.} X.X.} } | | *.*.5.5.7.7.7.7.f.5.5.:.:.:.o.o...X.X.X. . .....",
"d u u 7 i 5 5 1 2 [ > ; ; ; > 1 d T Z M A Y Q } X.X.o.o.X.X.o.X.X.X.X...X.| } | X.*.5.5.7.7.g.7.7.7.5.5.<.:.#.o.+.....X. . .....",
"f d i 7 u 6 5 2 2 [ > ; = = > 4 T D x v V D Q } X.X.X.o.X.X.o.X.X.X.X.X.X.X.} | X.*.5.5.7.7.7.7.7.7.5.5.<.:.:.o.......X.X. .....",
"f d i 9 u 6 5 2 5 [ 2 > = = ; v Y s g v V D Q { | X.o.o.X.X.o.o.X.X.X.X.X...} | X.*.5.5.5.7.7.7.7.g.5.5.5.:.:.o.....+...X.X. . .",
"f g i u u r 5 2 2 A u > & = r Q u u f v M D Q { | X.X.o.X.o.o.o.o.X.X.X...X.} X.o.*.5.5.7.7.7.7.7.7.5.g.g.<.:.o.o.+.+...X.X. . .",
"g f i u r 6 5 2 1 b i = # > Y b 5 6 s x M D T { } X.X.o.o.o.o.o.o.o.X.X.X.X.X.X.X.*.5.5.7.7.7.7.7.g.5.5.g.<.,.o.o.o.o...X...X. .",
"x l f u r 6 5 2 1 v i # = v v 2 2 6 d x M A T { } X.o.*.*.o.*.o.*.o.X.X.X.X.X.X.*.*.5.5.7.7.5.5.7.g.g.5.g.5.:.#.o.o.o...X.X. ._ ",
"c c d u r r 5 2 1 v u # d v = - 1 5 d g M A T ~ } X.*.*.*.*.:.:.:.*.o.X.X.X.X.X.o.*.5.5.7.7.5.5.7.7.7.g.g.5.:.;.;.*.o.+..... .! ",
"c x u u r r 5 2 1 f s 5 v ; # ; 1 5 a f b A Y ~ } X.o.*.*.:.:.5.:.:.o.o.X.X.X.o.*.*.5.5.7.7.5.5.7.7.7.g.g.5.<.;.;.;.o.+.+. .^ ! ",
"x g u u r 6 5 2 1 f v f > @ # ; 1 5 u f b V Y Q } X.o.*.:.5.v.v.j.:.*.o.X.X.X.*.*.:.5.5.7.7.5.7.7.7.7.g.g.5.5.:.:.;.o.+.+. .^ ! ",
"l d d u r 5 5 2 > g M 1 . X # = 1 5 u g v V D Q } X.*.:.5. X3X2X<Xd.:.*.o.o.o.*.*.:.5.5.7.7.7.7.7.7.g.g.g.5.5.<.:.;.#.#.+. .^ ! ",
"f f d u r 5 2 2 1 V l # . . # = > 2 u f v V D Q } X.*.5.%X4X3X2X<X)._ :.o.o.o.*.:.5.5.5.7.5.5.5.7.7.g.g.g.5.5.5.<.;.#.+.+. ._ Q ",
"f g d u r 5 5 2 1 T 2 . . . # = > 2 r d v M D Q { X.*.Z.3X4X3X<X<X<X( p.*.o.o.*.:.5.5.5.7.5.5.5.5.7.g.g.g.5.<.<.<.;.#.+.+. ._ ! ",
"g f p u e 5 4 2 6 T * . . . # = > 2 r d x M D Q { X.:.;X3X4X2X,X&X<X0.W.:.*.o.*.:.5.5.5.5.5.5.5.5.7.g.g.g.g.5.<.<.:.+.+.+.` _ ! ",
"g g p u r 5 2 2 g v # . . . # = > 2 r d x M A Q { X.g.2X3X4X2X>X$X*X_.W.g.:.*.:.5.5.5.5.7.5.5.5.5.7.g.g.g.g.5.<.<.,.&.+.+.+._ ! ",
"j g p u e 5 2 2 v 0 # . . . # = > 2 r d x b A T { X.c.<X3X3X<Xm.(.*X*X@XS.:.*.:.5.5.5.5.7.5.7.7.7.7.g.g.g.g.5.<.:.,.-.-.+.' _ ) ",
"v g p u e 5 2 2 b 1 # . . . # = > 2 r d f b A T { X.A.*X<X@X$X/ ~.,X,X*XT.<.;.:.5.5.5.5.7.7.7.7.7.7.g.g.g.g.g.<.,.,.-.-.+.' ` ) ",
"C g p u e 5 2 5 b = 2 X . @ # = > 2 e u f b A T { X.W.@X@XJ e.$X>X<X<X>X9.a.:.:.5.5.5.5.5.5.5.5.5.7.g.g.g.g.g.5.:.:.,.-.+.' ` ) ",
"&.V p u r 5 2 u x = s @ . @ $ = > 1 5 u g v A T { X._.&X@X9.N.,X<X2X2X,Xu.N.d.<.5.5.5.5.5.5.5.5.5.7.7.g.g.g.g.<.:.:.-.-.+.' _ ) ",
"C.+.f u r r 4 x 9 > r @ @ @ $ = ; > 5 u g v C T { o.>X<X<X<X2X,X<X2X<X,X&X`.W.s.5.5.5.5.5.5.5.5.5.5.7.g.j.g.5.5.,.,.i.-.-.' _ ) ",
"'.S._ k u d 1 v < p u @ @ # # = ; > 4 u g v C T { ;.<X1X2X2X<X<X,X<X,X>X<X,X>XS.5.5.5.5.5.5.5.5.5.5.7.7.g.g.5.<.,.,.-.-.+.' _ ) ",
"a.c.B.a.` ` v s - f 1 @ @ @ # $ = > 2 u f v V Y { B.2X2X2X<X,X<X>X*X&X`.&X<X<XS.5.5.5.5.5.5.5.5.5.5.5.7.g.g.2.:.,.-.-.-.+.' _ ) ",
"i.` s.B.B.S.1.s 1 u = # @ @ @ # = > 2 r f v N Y } _.1X1X1X<X<X,X>X&X`.(.).<X<XZ.g.5.5.5.5.5.5.5.5.5.5.5.g.g.2.,.,.-.-.i.i.' ' ) ",
"'.P.c.&.c.S.S.p.d > # # @ + + # = > 2 r d v V Y ^ *X<X<X<X<X,X,X*X`.(.(.`.<X<Xc.5.5.5.5.5.5.5.5.5.5.5.5.5.g.2.,.,.-.-.i.i.' ' ' ",
"oX=X{.s.s.B.P.H.! > # @ @ + @ # = > 2 r d k V Y ^ @X<X<X,X>X*X*X&X)./.R._.>X>Xz.5.5.5.5.5.5.5.5.5.5.5.5.g.g.2.,.-.-.i.i.i.i.q.i.",
";X X=X'.B.p.Z.J.S.E t # @ + @ # = ; 1 r d k V Y Q W.>X,X,X>X*X&X`.(.E.E.).&X&Xj.5.5.g.7.5.5.5.5.5.5.5.5.g.g.2.:.-.-.i.i.i.i.i.'.",
"oX'. X%X'.C.-.l.J.S.c.m # + @ # = ; 1 5 d k B Y Q d.*X,X*X&X&X`.(.E.E.E._.&X@Xg.5.5.g.g.5.5.5.5.5.5.5.5.5.g.s.:.-.-.i.i.i.a.S.[.",
"v.P.{. X'.|.P.S.d.S.[.S.E > & $ & ; > 5 u k B I T +.&X&X*X&X$X(.E.R.u.Y.~.$X^.g.5.5.g.g.7.5.5.5.5.5.5.5.g.5.s.p.-.i.a.a.d.'.|.Z.",
"g.V.K.S.S. X[.|.S.'.|.|.S.d.! k > > > 5 B k v A T { ^.`.$X$X).~.Y.U.w.R.Q.@XS.g.5.5.g.g.7.5.5.5.5.5.5.5.g.5.s.s.-.s.:.+.B.}.P.v.",
"v.c.Z.s.s.P.l.) c.C.d.S.S.Z.S.Z.&.E m ` c.k v C Y ~ M.(.(.).E.R.y.w.0.u.Q.@Xc.5.5.5.5.5.7.5.5.5.5.5.7.5.g.s.c.B...a.Z.'.#X%XZ.S.",
"c.v.F.z.7.2.! N 5.^ :.z.p.-.C.c.}.S.C.C.z.B v V Y Q &.Q.E.E.Y.u.9.9.9.w.T.Q.j.5.5.5.5.5.5.5.5.5.5.5.5.g.g.c.v.V.'.=X XH.S.'.{.P.",
"v.C.c.v.z.} ` v.K.S.V.&.` ` c.-.B.'.s.p.s.&.v V Y ~ } N.y.u.r.P L L L K y.c.g.g.5.5.5.5.5.5.5.5.5.j.j.j.;.K. XoX=XP.:.*.a.#XP.v.",
"v.Z.a.s.c.g.P.P.'.J.[.{.P.J.S.B.;.B.P.'.k.s.W Y Y ~ } i.P 9.P h J J L w e.g.g.g.5.5.5.5.5.5.5.g.P.B.` P.oX X-XP.v.Y 2.v.B.j.*.<.",
"C.S.c.-.S.Z.'.'.l.J.|.-X!.;X'.J.Z.g.Z.C.;XB.z.s.Q ~ } R y P K h / / K : :.g.g.g.5.g.g.v.V. X'.v.K.C.C. X{.P.z.} v p.P.S.s.5.F.F.",
"S.P.B.z.S.F.Z.S.Z.B.-.K.oX%X*X'.B.j.'.S.|.S.&.2.s...T * x ) / ) ` ' , y ;.j.j.j.Z.z.Z.P. XZ.j.].Z.:.z.Q 5.Q :.z.z.{.+...| Z.F.3.",
"Z.V.c.p.! F.2...&.W W 2.{. X%X[.` c.'.J.%XP.P.S.c.&.y   . Y a.a.-.-.` -.S.&.s.S.H.2.D S.S.j.v.7.8.F.K.P.P.S.S.F.P.].&.D *.8.*.8.",
"` &.-.s.d s.1.1.&.Z.c.j.v.S.'.A.J.N &.J.S.l.'.{.'.d.O U ) ` V.+.c.l x i } ^ %XoXP.v.c...z.5.Q K.I.'.oXoXP. XS.b.P.g.7.8.b.b.b.v.",
"` v.2.1.&.1.s.p.B.B.B.1.s.p.'.!.Z.^ g.&.c.c.s.v.k.t $ ` +.v.^ Y ^ s.S.].Z.C.'.C.:.F 2.'.F.I.{. X|.J.{.{.P.z.g.*.*.%.4.x.P.F.L.Z.",
"~ c.v.z.1.j.B.C.B.c.c.B.p.-.S.c.J.Z.b.b.g.C.Z.b.p.O B -.;.Z.z.c.S.!.J.'.P.C.S.B.B x ~ F. X=XoXS.c.g.v.| $.[ | F 7.b.v.F.b.v.F.F.",
"X.g.g.b.C.c.s.S.B.d.S.c.-.s.g.&.'.C.B.S.I.x.F.2.I a :.N g.c.B.S.{.A.Z.].'.|.'.s.! % q V F.P.J.U ~ b.} H [ g.Z.j.v.F.b.b.{.Z.7.3.",
"V +.:.:.j.c.B ` s.! S.B.p.` ` s.'.l.B.c.P.F.K.v.W ;.s.Z.S.l.S.j.` Y j.j.Z.P.{.{.^ % F 7 Z *.z.Q *.b.*.v.-.2.v.z.g.g.z.{.{.X.} 3.",
"r g v Q *.g.I M Q ~ +.Z.c.s.d C C.K.B.Z.v.S.'.B.` s.Z.C.B.B.v.p.a W P.K.p.F.P.+.I { ^ M | | Q *.Q | ..b.&.5.x.b.K.V.Z.P.F.3.L.F.",
"5 2 2 r N { ..:.*.:.~ ..'.c.! I g.C.S.K.d.v.C.C.B.s.c.B.v.c.C.B.-.c.C.v.v.S.V.&.&._ p.M Q &.;.g.2.z.F.C.P.v.L.L.OX'.v.v.j.g.I.I.",
"5 2 1 > > r C z.Z.z.&.z.-.-.c.N D Q s.s.:.c.B.c.s.s.! } D &.S.p.` B.B.` v.j.-.-.I v M | X.g.z.P.Z.Z.v.H.-XI.+X.X:X-XP.v.F.F.F.F.",
"2 1 > - = * > p.c.<.c.z.&.^ ! v &.^ ^ B.a.B.S.C.C.z.2 D D s.v.` v.:.s.Y v.-.;.&.-.M Q x.5.*.x.Z.P. XS.P.OXI.-XP.OX+XI.v.5.7.5.g.",
"1 1 > ; * # # B ` Y s.s.s.g.5 d z.c.s.P.Z.B.S.Z.s.u Y p.v g.-.v.F.C.&.j.;.^ :.s.s.M 5.L.{.V.I.XX X X'.XX X=X:X{.].F.h.h.*.z.A.T.",
"1 > - = # # o # t d r e B ^ W &.c.Z.a.C.K.H.C.Z.b.;.~ j.` u Z.g v.S.Y ..g.'.Z.v.j.D g.x.g.{.XX-X:XOX X:X=X+XF.5.5.h.5.c.d.n.Y.R.",
"1 > - = # # . . X # # X $ 4 R +.s.Z.j.s.j.g.5.5.g.b.C p.-.` p.p *.Q [ *.P.'. X].F.{ F.Z.I.OX].OX-XOX=XF.h.8.8.x.x.V.d.n.t.y.Y.R.",
"> - = * # @ . . . . . + # $ > B g.Z.&.v.<.2.*.j.5.z.z.a.s.-.p.e ~ s.j.P.].S.{.v.:.*.I. X X].OXXX{.v.X.8.D.G.g.j.B.M.m.n.t.y.Y.Y."
};
