/* XPM */
static char *_12d1ece988644cecc4f7d1bc4ea0e9akIKeCyaVOOal3DjC[] = {
/* columns rows colors chars-per-pixel */
"64 64 256 2 ",
"   c #180B08",
".  c #2A180E",
"X  c #271C14",
"o  c #2F291A",
"O  c #34281D",
"+  c #362C25",
"@  c #342F2C",
"#  c #3C3628",
"$  c #48341A",
"%  c #463929",
"&  c #503E2B",
"*  c #433D32",
"=  c #493E38",
"-  c #62441E",
";  c #5A6C1D",
":  c #4C442B",
">  c #594727",
",  c #454334",
"<  c #4B4335",
"1  c #4D4935",
"2  c #4D453A",
"3  c #4D4A3B",
"4  c #544935",
"5  c #52463A",
"6  c #544A3C",
"7  c #594D3C",
"8  c #545730",
"9  c #58543B",
"0  c #634A26",
"q  c #69522B",
"w  c #685132",
"e  c #695636",
"r  c #745C39",
"t  c #686C34",
"y  c #77633E",
"u  c #76793A",
"i  c #4F494A",
"p  c #544D42",
"a  c #554946",
"s  c #5A4E43",
"d  c #565344",
"f  c #5C5244",
"g  c #595647",
"h  c #5D544B",
"j  c #5E594B",
"k  c #5D5754",
"l  c #665946",
"z  c #62564C",
"x  c #635B4C",
"c  c #775E46",
"v  c #645C53",
"b  c #665B57",
"n  c #695D54",
"m  c #655E5A",
"M  c #686649",
"N  c #6B634E",
"B  c #766747",
"V  c #7C6B4B",
"C  c #6D7247",
"Z  c #787847",
"A  c #6B6254",
"S  c #6A6656",
"D  c #66625B",
"F  c #6C635C",
"G  c #716555",
"H  c #766956",
"J  c #72655B",
"K  c #746A5C",
"L  c #7A6C5C",
"P  c #797757",
"I  c #7B725D",
"U  c #5F5A62",
"Y  c #636160",
"T  c #6D6663",
"R  c #6E6964",
"E  c #736B64",
"W  c #766A66",
"Q  c #7A6D62",
"!  c #746E6A",
"~  c #767267",
"^  c #7C7264",
"/  c #7D746A",
"(  c #7B7572",
")  c #7E7977",
"_  c #846B4B",
"`  c #877A48",
"'  c #937A4D",
"]  c #856C53",
"[  c #847255",
"{  c #87775B",
"}  c #947957",
"|  c #837464",
" . c #867864",
".. c #8C7B63",
"X. c #81756B",
"o. c #847A6C",
"O. c #8C796D",
"+. c #8B7C6C",
"@. c #937E65",
"#. c #937E6B",
"$. c #9A7E68",
"%. c #847C73",
"&. c #8A7D73",
"*. c #877B78",
"=. c #827D7B",
"-. c #558711",
";. c #6B931B",
":. c #78B11E",
">. c #5C852A",
",. c #698E2C",
"<. c #768C29",
"1. c #749A29",
"2. c #778738",
"3. c #799837",
"4. c #7B943C",
"5. c #79A62B",
"6. c #7DA43A",
"7. c #7B8846",
"8. c #7B9446",
"9. c #788653",
"0. c #7D9657",
"q. c #7EA442",
"w. c #828D3F",
"e. c #83993A",
"r. c #84A83B",
"t. c #87B430",
"y. c #878A49",
"u. c #938A4B",
"i. c #859748",
"p. c #849C4B",
"a. c #8A9C4D",
"s. c #98964A",
"d. c #888757",
"f. c #8B8B51",
"g. c #958957",
"h. c #8B9554",
"j. c #8C9B52",
"k. c #8D935A",
"l. c #889859",
"z. c #949859",
"x. c #A89C5B",
"c. c #89A748",
"v. c #95A74D",
"b. c #8CB344",
"n. c #95B64A",
"m. c #8BA455",
"M. c #92A453",
"N. c #94A35B",
"B. c #99A958",
"V. c #9AB354",
"C. c #AAA653",
"Z. c #A4A75B",
"A. c #A4B459",
"S. c #8A8567",
"D. c #95826C",
"F. c #978868",
"G. c #8B9663",
"H. c #949563",
"J. c #989967",
"K. c #8C8275",
"L. c #89847B",
"P. c #8C847A",
"I. c #938374",
"U. c #9B8573",
"Y. c #998976",
"T. c #93867B",
"R. c #94897C",
"E. c #9C8B7D",
"W. c #8E9A73",
"Q. c #9B9677",
"!. c #A28669",
"~. c #A49869",
"^. c #B09966",
"/. c #A38C74",
"(. c #A98B75",
"). c #A38C7C",
"_. c #A69877",
"`. c #AC937C",
"'. c #B5977D",
"]. c #91A667",
"[. c #9AA666",
"{. c #9BA676",
"}. c #A8A867",
"|. c #A4A36C",
" X c #A7B566",
".X c #B4B76A",
"XX c #A7A678",
"oX c #B7A87A",
"OX c #B1B275",
"+X c #CA9F7E",
"@X c #9FC14E",
"#X c #B3C375",
"$X c #74798D",
"%X c #817D81",
"&X c #798499",
"*X c #8A8584",
"=X c #938583",
"-X c #948B84",
";X c #9B8D83",
":X c #958D89",
">X c #998E8B",
",X c #9D9284",
"<X c #939088",
"1X c #9B928D",
"2X c #8E8A95",
"3X c #9E9491",
"4X c #A38E82",
"5X c #A49384",
"6X c #A79888",
"7X c #AC9B8C",
"8X c #B79C86",
"9X c #B29C8B",
"0X c #A19692",
"qX c #A49A94",
"wX c #AD9C93",
"eX c #A59C99",
"rX c #AA9D9B",
"tX c #B29E93",
"yX c #9EAA85",
"uX c #AAA686",
"iX c #B8A589",
"pX c #B6B58C",
"aX c #ABA19E",
"sX c #B5A294",
"dX c #BAA493",
"fX c #B6A79B",
"gX c #BDAA9B",
"hX c #AEA5A2",
"jX c #B2A6A3",
"kX c #B5AAA5",
"lX c #BCACA4",
"zX c #B5ABA9",
"xX c #B9AEAB",
"cX c #BCB2AA",
"vX c #BDB3B0",
"bX c #C4A58A",
"nX c #D2AD8C",
"mX c #C4B68C",
"MX c #C6AB97",
"NX c #C7B599",
"BX c #D3B49A",
"VX c #C2ADA2",
"CX c #C5B3A5",
"ZX c #C9B8AB",
"AX c #D4BBA8",
"SX c #C6BAB6",
"DX c #CBBDB3",
"FX c #D2BFB3",
"GX c #CDC595",
"HX c #D8C5AD",
"JX c #CDC2B6",
"KX c #D6C4B7",
"LX c #E0C8B4",
"PX c #D3C7C5",
"IX c #D6CBC6",
"UX c #E4D9D1",
/* pixels */
"*X*X) =.L.=.=.L.! ! *.<X<X%.( o.( W v h p h v k k h = o # a a h h b 6 2 6 % . . % < # O # * 2 < + o o * g 1 # * m ! A p * < N j ",
") ) ) %.) =.=.) T D / L.*X%./ ! ~ A v D h T ! T m k d h v b S v j m d * 2 7 < % % # # * # * * X o # # , p j N x D J D , O * N z ",
"L.) =.) =.=.( ! m D ! / ) ( R m E E T ! E ( ! F F / T.;XR.&.~ ~ S A g 3 g 6 5 z 7 O O * 2 2 * , 1 6 6 * # d j x j v A 6 # , p 3 ",
"%X) *X*X*X=.( ! D ! ! T D T ! T F ~ ! ( / ! D F E.dXMXBXBXMX5XP.F k g g D K &.).U.H : + < 2 < 3 1 2 p < * 1 , 3 p j v p 2 , 1 1 ",
"L.*X*X*X1X=X( ! F ! ( T D ! ! A v ! R ) ! D F E.MX8X`.'.bXMXdX5X! Y k D %.;XtX8X8X'./.7 < * # * 1 < , , , 3 p 6 p h g < , , , , ",
"=.*X*X=X:X=.( ( ! ! ( ! R ! E z h T R =.T D R.CX8X(.(.(.'.8X).9X>X*X=.:X0X0X5X4X/.!.(...z O + < d 3 # # # , d d 1 d g , , , 3 p ",
"! *X:X:X-X=.) L.( E ( ! m F F a b ! ! %.T ~ fXAX8X`.8X'.'./.5X7XfXxXlXlXlXrXqX0XE.#././.n # + 6 p g , # # # d j 1 5 f d g p 3 * ",
"m R *X=.) ! ! =.=.! ! ! k k F a m T ! ! E ^ gXAX8X9XMXdX9XsXsX7XlXzXSXZXZXjX0X>XE.).U.$.z 6 * 6 p d 3 3 < , 6 f 1 < f v v 6 # o ",
"E h T T ! ) ) =.) R Y E b a v a E ! ! E m F sXAXbX9XVXCXVXVXVXfXjXSXPXDXZXlX;XT.4X4X).D.n x < + * 6 1 1 1 4 9 x z f f z 6 1 6 1 ",
"T d k T ! ) ( ( ( ! T E m h h z ~ E m F h z 5XBX8XMXZXZXVXtX*.%XzXDXDXSXkXjX>XX.X.I.E. .z A 5 + < f j x N j x N n f < 7 f f j 9 ",
"m k k T ! E ! R Y m m T T R n z J F v m v m &.dXMXFXFXCXgX=X&X$XzXDXCXeX:X:X>XU i ^ U.{ A K 6 # + % p h v p s z x f : 5 g z x x ",
"D D v m T v F T m h h v b m z z v A D D m m %.gXFXKXFXCXlX*.$X*XCXgX0X2X*X( =X*XU W I. .I I x 9 1 X o # 5 6 h f 9 7 4 1 f x N g ",
"d h k k v v m T F v h h s z n A h v h k v W wXFXKXHXAXAXVX9X7XsXVXtX*.U k i W ;X&.Y.).).+.K n h 1 % : 1 j S A 7 4 9 9 l l g z N ",
"v v m v v v F E T z z v A F A v 5 h p h ! sXKXLXHXAXAXAXBXBXBXBXMXtXX.k + @ F 6X8X8X8X`./. .s 2 6 1 : 9 x A x f 5 7 l K A f z E ",
"S j g n h p z A n x x N A j v v 6 f v E fXKXKXHXAXBXBXBXBXBXnXnXnXdXO.= X + H 8XbXbX8X(././.| 9 4 4 8 9 f z g z f 5 f n E z f J ",
"9 9 8 9 6 5 6 z F J K N g d v n f F ! -XIXLXAXMXbXbXMXMXbX!._ } '.dXE.5 X 5 U./.} } !.!.F.(.).x f x f < f v h s 5 < p h F F 6 v ",
"C C C M z h s 2 f n F F v A ~ T p A R 0XUXKXMX9X`.8X8X8X'.!.] _ V [ L % X > c 0 0 q r ] } $./.+.n x 5 1 f z z h 2 < p h z z x n ",
"H G x A A A z 6 = 5 v F F F E F s 6 E DXUXFXgXgXdX9XiX8X`.U./.8X`.@.l $ $ - q w 0 w c _ { @.@.6Xn 7 s f z h z z z h h v v x l s ",
" .I H G N M N G x v A W ~ A v z A v ~ IXKXCXgXfXdXdXiXiX8X/.U.D.@._ B 0 0 q r r w B ] { ..@.D.6Xx 6 6 f f s 6 6 f h s h z x f 5 ",
"{ { { I H C C G N M l N H N z A S J K.IXJXgXfXsXfXdX9X8X`.Y.D.@.[ r q - - q q e r V [ @.@.@.U.5XA 5 5 f 6 6 6 6 s s 5 1 6 z x f ",
"W.G.9.d.P Z Z M 9 M M M C C M C C P o.KXJXCXgXfX9X6X`./.U.U.D.{ _ y r r q r r y B _ [ ..#.#.U.5XN : % : : % % % = 5 6 5 1 9 M f ",
"0.].8.h.l.h.d.9.C M P P Z u C 7.k.9.9.DXZXNXfX6XE.U.U.D.@...[ V y e r y y y B _ ] [ { @...D.Y.5XN : & % $ : : : 4 4 6 5 1 9 l 9 ",
">.2.7.l.W.J.G.k.9.7.i.M.N.h.h.N.j.h.J.JXJXCXgX7X5XU.#...[ [ [ B q q e y V V V [ [ [ { D.#.U.U.5Xl > > 7 e e e w 9 9 9 7 : : 8 8 ",
"0.,.0.G.{.{.OXOX XM.V.A.V.A.B.j.j.h.z.XXJXCXfX5XE.E.U.#.@...{ e 0 q e r y V _ V ] [ [ ....@.U.D.Z t 8 e M B B e q e N G H M t ; ",
"m.>.; 8.m.m.n.V.V.m.[.V.c.].i.i.a.a.h.G.gXgX7XE.I.U.U.Y.D...B 0 0 0 0 q r B B V V V [ { { @./.[ u Z u u C M C t t Z V C I I I P ",
"3.-.-.>.,.1.1.4.l.l.8.6.c.m.z.z.J.M.m.j.XXCXsX5XU.+.#.+.{ B q 0 > 0 - 0 e r r B V _ _ ....D.S.C ` ` y.y.Z t t t u Z Z u Z I  . .",
"0.,.>.>.8.8.8.G.W.l.4.4.p.M.N.N.[.N.m.j.[.cXsX).I.+. .| V e > > > > > 0 e e w e r B V [  .I.d.y.f.f.g.f.y.y.2.u 7.7.7.y.d.P S.Q.",
"W.0.8.>.>.2.8.8.p.c.i.h.H.N.M.M.N.N.M.a.j.XXfXE.+.| H G 7 & & > w > > > > > & : 4 7 e G +.Q.y.c.y.y.` u.g.g.g.z.y.u 2.f.d.Z P D.",
"{.l.3.,.-.;.<.4.c.c.M.z.[.[.M.m.p.j.M.M.i.J.fXT.E n 7 < % % & w l > > > & & $ % : : 4 f L Q.z.c.i.y.Z f.g.g.g.g.g.u.y.y.y.u P Q.",
"m.p.6.1.-.;.r.v.B.V.V.V.B.B.N.m.p.M.M.m.k.uXcXT.m z n z 7 4 e l B l e e 7 : O O + # < 7 H Y.J.z.a.i.i.j.y.` ' g.u.` u ` y.u d.J.",
"m.c.6.1.;.1.r.n.V.A.n.n.c.m.N.c.c.c.c.m.J.JXZX0X=X=XX.J x G ^ o.L n l G o.G K K K L Q K G T.Q.h.a.c.c.i.7.Z f.g.f.u.' } d.d.z.h.",
"a.4.q.4.v.M.r.r.B. XA.V.p.8.a.B.M.c.b.c.uXDXlXwX1XR.&.&.X.o.T.K.K A L ^ +.o.o.Q G ^ L L X.T.5XS.u c.3.3.3.i.z.u.u.g.g.' _ } g.u.",
"z.y.a.h.h.y.2.7.a.c.e.c.6.b.n.V.M.7.7.W.DXZXlXfX;X&.T.X.^ o.R.R.| A L L L K K ^ ^ +.^ X.L R.R._.M.3.e.u y.p.M.Z.B.u.y.u.' ` z.Z.",
"XXJ.Q.|.[.i.y.7.4.6.3.3.q.q.c.c.G.S.I.lXDXcXlXkX0X;X;X%.X.K.;X5XE.o.K.o.R.T.T.R.T.K.K.,XT.T.E.Q.f.i.i.}.}.M.a.s.s.s.x.C.u.t u w.",
"[.[.k.[.N.i.4.c.c.r.6.3.8.8.p.8.J.Y.7XZXDXcXlXfX,X1XqX;XT.,X,X5XE.Q.E.R.T.&.o.K.R.&.I.K.E.E.6XQ.z.i.i.z.J.f.8.4.e.e.C.v.2.; ,.3.",
"[.N.N.|.|.k.y.h.[.c.6.6.9.S.S.G.J.Q.CXKXDXDXZXcXqXwXwXT.&.T.R.,X+.R.R.K.o.o.&.E.6XE.I.+.I.+.E.5XG.i.p.i.y.y.a.c.c.e.5.5.;.,.3.3.",
"z.[.}.~.Q.J.g.d.d.y.8.4.d.d.H.[.J.uXFXKXDXJXKXDXgXfX5XK.X.+.R.K.K.X.o.R.+.T.K.I.;X;XI.I.T.Y.E.6XJ.H.y.y.y.i.c.r.e.<.,.1.1.6.p.i.",
"H.XX~.F.J.XX_.k.y.d.h.8.8.i.z.[.J.gXDXFXFXFXFXDXgX7X6XR.K.X.o.&.+.X.o.K.X.K.T.^ L I.I.#.Y.5X5X6XQ.XXG.S.d.y.3.3.2.2.<.1.1.6.3.e.",
"XXoX|.J.XXJ.J.k.f.k.j.c.c.V.V. XF.kXDXDXKXDXZXlXwX5X;XK.^ K K o.^ / / ^ K K L [  .#.U.U.#.Y.E.6X_.pXp.z.j.c.c.r.p.7.2.4.4.3.3.e.",
"oXoXGXGXOXOXOX}.|.|.V.n.b.a. XH.,XSXSXDXCXZXCXlXsX5XK.X.Q K z J A F o.o.Q | |  .)./.L | +.+.E.sX).g.8.7.b.1.5.t.m.l.8.J.yX].].{.",
"~.~.XXXX_.XXOXJ.z.~.}.h.2.u k.S.aXPXPXKXKXFXgXsXfX7X5X+.| L K b A E &.Q K I.4X).9XE.K G | I.4X6X+.d.c.8.c.<.3.5.:.;.;.3.i.e.r.n.",
"j.|._.F.J.J.k.y.f.z.~.d.d.J.Q.R.jXPXPXDXKXKXZXgXtXtXE.I.).U.K h F E &.X.X.5XfX4XO.X.Q G | 4X5X;XT.B.n.r.r.c.n.b.5.1.<.<.e.<.<.r.",
"y.k.Z F._.Q.{.f.z.|.k.9.G.F.S.P.vXSXPXJXSXJXZXCXMXtXI.4XsX4X+.J E E / / o.6XwX&.W %.E.+.U.6X6X5Xo.f.t.t.b.b.b.r.5.3.i.B.g.` d.y.",
"XXJ.k.uXXXOXOXc.A.B.a.l.N.F.S.-XxXSXIXPXDXJXJXDXCX7XT.wXVXgX4XQ E K ^ Q &.7X;XT h n U.E.E.5X;X7Xo.Z <.t.r.n.c.r.5.r.c.V.}.J.J.H.",
"mXOXpXpX#X#XOXn.@X@XV.[.B.[.K.qXSXPXIXPXSXSXDXKXDXVX5XwXrXlXfX&.K A J G +.T.W = + 6 ..D.I.,XT.R.R.P 2.1.2..XA.V.B.Z.B.V.B.z.H.H.",
"|.oXXXz. X XH.y.V.@XB.y.a.A.S.aXSXPXPXPXSXvXvXDXKXCXdXwX>X>XrX5XK x G G | Q a X X 4 [ X.o.R.;XR.-XP h.3.z.oX}.B.}..X.X X XJ.z.[.",
"mXGXNX XB.[.{.H.OX#X Xz.B.G.;XkXvXSXSXSXSXSXaXaXcXfXsXtX*.T =XT.L N X.H z a +   . & x J ^ %.1XK.-XH f.4.h.g.^.g.g.A.#XA.z.g.y.h.",
"GXGXGX#X[.[.H.d.|. XV.}.OX_.0XxXvXSXSXvXxXhXeXhXhX0X,X6X^ k W X.H l X.G % % X   . < z E K o.K.T.T.A d.f.g.~.oXoX^.C.v.j.z.z.[.F.",
"~.XXmXpX|.H.J.OXmXXXz.H.H.Q.jXkXvXcXSXSXxXrXhXvXkXqX0XE.Q = i b n 7 [ l O .     < x z K / %.%.T.%.G d.g.F.|.'.'.oXA.V.M.j.w.y.{ ",
"_.sXNXiX_.F.g.H.|.[.J...S.I.rXkXxXSXJXSXkXhXhXjXeX-X=./ Q = @ i = % L l 4 O % z K v F Q K.T.-XT./ J V } ] g.!.^.^.B.c.v.}.Z.Z.f.",
"_.dXZXfX7X6XQ.uXXXk.[._.Q.,XrXxXSXSXSXSXxXrXaXxXeXL.( ! J = X + O X x l f 7 l K o.^ / &.K.-X,X,XX.K  .U.} F.oX^.}.Z.s.s..X.X.X}.",
"mXAXCX6XfXfX9XpXXX_.oXuX`.E.qXjXxXcXlXlXzXrXjXvXaX3X:X%.%.z X     % N A x x l H o.o.%.K.&.P.K.R.X.E Y.iXoXoXoX~.J.Z..X}..X.XZ.g.",
"iXAXKXZXDXCXMXNXpXiXiXiX8X5XrXjXxXhXkXxXxXzXvXvXhXeX3XR.R.K.h = = ^ ^ H L A I X./ ^ ^ / P.*.o.&.Q J S.mXOX_.F.{ [ ` u ` f.Z.z.' ",
"{ 4XUXUXJXuXiXmXiXuXuXuXMXsXrXjXjXhXxXxXzXxXxXxXjXhX0XR.R.-X%.E K I ^ K K N A K J F K E ~ %.*.%.Q K D.XXJ.{ ] ] ] ` Z B B d.d.' ",
"I.E.sX7XXXH._.uXY.`.8XI ).9X0XjX0XqXjXrXrXxXxXjXhXaXqX-X-XR.K.^ ^ K G K G A G G K Q ^ E W / o./ X.Q [ S./.U. .$.D.J.[.k.V U.D._ ",
"CXpX(.$.{ F.F._.J.!.`.B ..).E.kXrX1XjX3XeXaXeX1X1X:X-X-XP.-XK.%./ I o.o.K G ^ ^ ^ X./ o./ / X.Q K K H V } 6X7X`.(.~.h.z.F._.} _ ",
"HXLXnX+X'.`._.XXJ.~.iX_.|._.;XqX3X3XjX0XhXrXqXqXaX>X-X*.P.L.E / I K J J K G J K K o./ / o.^ o.E Q G H F./.oXF.$./._._._.oX|.Z. X",
"} ~.^.oXnXbX'./...F._.J.z.~.Q.0X1XqXrX3XeXqX3XaXaX:X1X-X%.K.K.K./ ^ G N A A x J X.%.o.o.^ X.X.Q K L  .D.} F.k.S.$.U././.U.d.M.M.",
"x.}.A.y.F.F...| +.| ..y.f.N.F.1X>X3XeXeX3X1X>XeXeX1X1X-X*.K.R.R.K.^ I K K H x A Q ^ ^ ^ Q X.K A J X.| S.g._.~.S.| ]  .Y.U.F.d.Z ",
"~.B.V.m.0.G.Q.,XQ.S.Y.F.d.{ { -X1X>X0XeX3X3X3XqX1X-XP.P.K.K.R.%.K.I o.^ ^ ^ J A J J K / X.^ Q A K o. .d.N.|._.U.U...U.dXiX~.F.V ",
"{ H.c.m.9.9.W.yXuXXX{.6XQ.F.~.,X>X1X:X>X:X>X3X:X-X-XP.P.R.K.R.o.o.o.S.^ I ^ ^ ^ ^ K K ^ X.^ / K K Q { F.^.oXnXBXnXiX8XMX~.!.iX_.",
"iX{ 7.Z H S.Q.].yXuX{.uXuXQ.d.K.1X0X>X:X:X1XqX:X-X=XK.K.P.P.P.K.o.K.K.o.^ K J K ^ ^ ^ Q ^ Q K K F ^ [ /.`.`.8XiX`./.`.(.] { ~.J.",
"J.S.d.{ D.J.m.c.|.uX{.{.XXQ.o.&.qXhX0X0X>X1XeX>X>X:XP.%.P.P.K.K./ o.o.o.o.I G K ^ ^ Q Q ^ Q K J J / +.5X9X6X6X7XE.F._./.U.U.F.k.",
"d.|.#XXXH.d.d.B. X|.S.S.XXNXCX7X0XeX3X-X=X-X0X1X3X:XP.%.K.K.T.o.I I J I o.o.L L K K K Q K K x A E ^ o.).iXiX9X6XY.S._.9X5X6X~.H."
};
