/* XPM */
static char *_40ed31379b44d85b1ef88456f50fdb2BdGbvKBCwdz4RaqW[] = {
/* columns rows colors chars-per-pixel */
"64 64 226 2 ",
"   c #15140F",
".  c #1A1716",
"X  c #221D1A",
"o  c #28221B",
"O  c #34312E",
"+  c #50443A",
"@  c #394A50",
"#  c #384B57",
"$  c #364F68",
"%  c #3B5669",
"&  c #3A5775",
"*  c #555148",
"=  c #46545A",
"-  c #575B59",
";  c #685E4D",
":  c #5B615D",
">  c #495C67",
",  c #515F63",
"<  c #435C74",
"1  c #4D626F",
"2  c #5D6564",
"3  c #596669",
"4  c #5E696C",
"5  c #556775",
"6  c #5D6C74",
"7  c #5D6E7B",
"8  c #5F7077",
"9  c #5E707C",
"0  c #636B66",
"q  c #696B64",
"w  c #626C6C",
"e  c #6B6E6A",
"r  c #6D7166",
"t  c #67706B",
"y  c #6C726C",
"u  c #727365",
"i  c #7B7766",
"p  c #73746C",
"a  c #616D73",
"s  c #616E79",
"d  c #6A7474",
"f  c #64747B",
"g  c #697478",
"h  c #7C7D73",
"j  c #757B78",
"k  c #88745B",
"l  c #847D6A",
"z  c #837E74",
"x  c #7E8078",
"c  c #89826C",
"v  c #95856D",
"b  c #898576",
"n  c #978C77",
"m  c #948D7B",
"M  c #9B927C",
"N  c #A5967A",
"B  c #3E6087",
"V  c #466384",
"C  c #45658B",
"Z  c #4A668C",
"A  c #47698E",
"S  c #4B698E",
"D  c #5C6E81",
"F  c #556E8A",
"G  c #5D7184",
"H  c #5A7288",
"J  c #4B6B91",
"K  c #526D92",
"L  c #547194",
"P  c #5B7595",
"I  c #5C7797",
"U  c #637584",
"Y  c #61768B",
"T  c #67798A",
"R  c #6D7B8C",
"E  c #747D8F",
"W  c #677B96",
"Q  c #637B9B",
"!  c #7A838C",
"~  c #6A819B",
"^  c #6C829C",
"/  c #7A8496",
"(  c #73839C",
")  c #7C899E",
"_  c #7F919B",
"`  c #7989A2",
"'  c #7790A5",
"]  c #83848C",
"[  c #88868A",
"{  c #8C8A8D",
"}  c #928E8E",
"|  c #9B9585",
" . c #868A97",
".. c #8B8C93",
"X. c #928E93",
"o. c #8B9197",
"O. c #83939E",
"+. c #939195",
"@. c #979499",
"#. c #9C9C9C",
"$. c #A89B86",
"%. c #B09F82",
"&. c #A39A96",
"*. c #AFA28A",
"=. c #B7A587",
"-. c #A9A39A",
";. c #BCAD94",
":. c #838DA2",
">. c #8593A3",
",. c #8B93A3",
"<. c #8598A5",
"1. c #8B9CA5",
"2. c #8B96A9",
"3. c #8D9CAA",
"4. c #9396A2",
"5. c #9796A5",
"6. c #949CA5",
"7. c #9A9DA4",
"8. c #949BAA",
"9. c #9B9EAA",
"0. c #A29DA5",
"q. c #8DA1A9",
"w. c #95A0A6",
"e. c #9CA1A6",
"r. c #94A4AB",
"t. c #9DA4AB",
"y. c #96A8AF",
"u. c #9AA8AE",
"i. c #9EA9AE",
"p. c #9FA9AF",
"a. c #95A7B1",
"s. c #96A9B2",
"d. c #97ABB4",
"f. c #99AAB1",
"g. c #9BABB3",
"h. c #9EAAB1",
"j. c #9EACB2",
"k. c #99ABB5",
"l. c #9AADB5",
"z. c #9BADB7",
"x. c #A3A1A6",
"c. c #AAA5A3",
"v. c #ADAAA6",
"b. c #A3A4AC",
"n. c #A0A7AD",
"m. c #A2A6AD",
"M. c #A9A6AC",
"N. c #A1A8AE",
"B. c #A3A9AE",
"V. c #ACAAAD",
"C. c #B4ADA5",
"Z. c #B2ADAE",
"A. c #BAB1A4",
"S. c #B6B1AD",
"D. c #BBB3AD",
"F. c #A4A7B1",
"G. c #ABA7B1",
"H. c #A3AAB0",
"J. c #A4ABB1",
"K. c #A4ABB2",
"L. c #A2ACB2",
"P. c #A4ADB2",
"I. c #A1AEB5",
"U. c #ACACB2",
"Y. c #B2AEB2",
"T. c #AEB1B4",
"R. c #ADB7B9",
"E. c #B4B2B4",
"W. c #BBB5B4",
"Q. c #BDB9B6",
"!. c #B5B4B9",
"~. c #BBB6B9",
"^. c #B7B9BA",
"/. c #BDBAB9",
"(. c #C1AD8A",
"). c #CDB88E",
"_. c #CAB797",
"`. c #D1BC97",
"'. c #C6B9AA",
"]. c #C3BAAE",
"[. c #C2BBB5",
"{. c #C9BEB5",
"}. c #C3BCBB",
"|. c #C8BEBB",
" X c #BCC0BF",
".X c #D7C39C",
"XX c #E0C99E",
"oX c #D4C3A4",
"OX c #DBC9A9",
"+X c #CDC2B4",
"@X c #C6C1BC",
"#X c #CBC3BD",
"$X c #D6C9B3",
"%X c #D1C6BD",
"&X c #D4CABD",
"*X c #DCCEBC",
"=X c #DED1BC",
"-X c #E3CEAA",
";X c #E8D3AD",
":X c #E1CFB2",
">X c #E5D2B3",
",X c #EAD7B7",
"<X c #E3D4BB",
"1X c #ECDBBB",
"2X c #F2DDB7",
"3X c #F2E2BE",
"4X c #C5BFC1",
"5X c #B8C0C0",
"6X c #C6C4C2",
"7X c #CCC6C1",
"8X c #CEC9C2",
"9X c #D4C9C6",
"0X c #D4CCC4",
"qX c #D9CEC4",
"wX c #DCD1C4",
"eX c #D7D4CA",
"rX c #DCD4CA",
"tX c #E5D6C6",
"yX c #ECDCC2",
"uX c #E3D9CB",
"iX c #F0DFC3",
"pX c #E4DCD1",
"aX c #F3E3C5",
"sX c #F5E6CA",
"dX c #ECE2D3",
"fX c #F8E9D2",
/* pixels */
"_ O.>.1.1.3.r.r.r.a.a.a.a.s.s.s.s.s.s.s.d.d.d.d.d.d.d.k.k.l.l.l.l.l.l.k.k.k.k.k.k.k.k.k.k.k.k.s.s.s.s.s.a.a.a.a.r.r.q.1.1.>.O._ ",
"O.>.1.1.3.r.r.a.a.a.a.s.s.s.s.s.s.d.d.d.d.d.d.l.l.l.l.k.k.l.l.l.l.l.l.l.l.l.l.l.k.k.k.k.k.k.k.k.k.s.s.s.s.a.a.a.a.r.r.q.1.1.>.O.",
"O.<.1.3.q.r.r.y.y.y.s.s.s.s.k.k.k.k.k.k.k.k.k.k.k.l.l.l.l.l.l.l.l.l.l.l.l.l.l.l.l.l.l.l.k.k.k.k.k.f.f.s.y.y.y.y.y.r.r.r.q.1.<.O.",
">.1.3.r.q.r.y.y.y.s.s.s.s.k.k.k.k.k.k.k.k.k.l.l.l.l.l.l.l.l.l.l.l.l.l.l.z.l.l.l.l.l.l.l.l.l.k.k.k.f.f.f.s.y.y.y.y.r.r.r.q.3.1.<.",
"<.3.3.r.r.r.r.y.y.s.s.f.f.f.f.f.f.f.f.l.f.l.l.l.l.j.j.j.j.j.j.j.j.j.j.j.j.j.j.l.j.j.j.l.l.l.f.f.f.f.f.f.f.y.y.y.y.r.r.r.r.3.1.<.",
"<.3.r.r.r.r.y.y.y.f.f.f.f.f.f.f.f.f.f.j.f.j.l.l.j.j.j.j.j.j.j.j.j.j.j.j.j.j.j.j.j.j.j.j.j.j.f.f.f.f.f.f.f.f.y.y.y.r.r.r.r.r.3.1.",
"3.w.r.r.y.u.u.u.u.u.u.u.u.h.f.f.h.h.j.j.j.j.j.j.j.j.j.j.j.j.j.j.j.j.j.j.j.j.j.j.j.j.j.j.j.j.j.h.h.f.f.u.u.u.u.u.u.u.r.r.r.w.w.1.",
"6.w.r.u.u.u.u.u.u.i.i.i.i.h.h.h.j.j.j.j.j.I.I.I.j.j.I.I.I.I.I.I.I.I.I.j.j.I.I.I.L.L.I.I.I.j.j.j.j.h.i.i.i.i.u.u.u.t.t.t.r.r.w.1.",
"6.r.t.t.t.u.t.i.i.i.i.h.h.h.h.j.j.L.L.L.L.I.I.I.j.I.I.I.I.I.I.I.I.I.I.I.I.I.I.I.L.L.I.I.I.L.L.j.j.h.h.h.i.i.i.u.u.u.u.t.t.r.w.w.",
"6.e.t.t.t.t.t.t.i.i.i.h.h.h.H.L.L.L.L.L.L.L.L.I.I.I.I.I.I.I.I.I.I.I.I.I.I.I.I.I.I.L.L.L.L.L.L.L.L.L.h.h.i.i.i.i.i.t.u.t.t.t.r.w.",
"w.e.t.t.t.t.t.t.i.i.i.i.i.i.H.H.H.H.L.L.L.L.L.L.I.I.I.I.L.I.I.I.I.I.I.I.I.L.L.L.L.L.L.L.L.L.L.H.H.H.h.i.i.i.i.t.t.t.t.t.t.e.e.w.",
"w.e.t.t.t.t.t.t.b.i.i.N.N.N.N.H.H.H.H.L.L.L.L.L.L.L.P.P.P.P.P.P.P.P.I.I.I.P.L.L.L.L.L.L.L.H.H.H.H.N.N.i.N.N.t.t.t.t.t.t.t.e.e.6.",
"w.e.t.t.t.t.t.t.t.t.N.N.N.N.N.N.H.H.H.H.H.H.L.L.L.L.L.P.P.P.P.P.L.P.L.L.L.L.L.L.L.L.L.L.H.H.H.H.N.N.i.i.i.t.t.t.t.t.t.t.t.e.e.6.",
"e.e.e.t.t.t.t.t.t.t.b.b.N.b.N.N.N.H.H.H.H.J.J.J.J.J.J.J.J.J.J.P.J.J.J.J.J.J.J.J.J.H.H.H.H.H.N.N.N.b.b.b.i.t.t.t.t.t.t.t.e.e.e.7.",
"e.e.t.t.t.t.t.t.t.t.b.b.i.i.N.N.N.N.H.H.H.H.H.H.J.J.J.J.J.J.J.J.J.J.J.J.J.J.J.J.J.H.H.H.H.H.N.N.N.b.b.b.i.t.t.t.t.t.t.e.e.e.e.7.",
"e.e.e.t.b.b.b.b.b.b.b.b.b.i.i.b.N.N.J.H.H.H.H.H.H.J.J.J.J.J.J.J.J.J.J.J.J.J.J.H.H.H.H.H.H.N.N.N.b.b.b.b.t.t.t.t.t.t.t.e.e.e.e.7.",
"e.e.e.t.t.b.b.b.b.i.i.b.b.b.b.b.N.b.b.H.H.H.H.H.H.H.H.J.J.J.J.J.J.J.J.J.J.H.H.H.H.H.H.H.H.N.N.i.b.b.b.t.t.t.t.t.t.t.t.e.e.e.7.7.",
"e.e.e.t.t.t.t.t.b.b.i.i.b.b.b.b.b.b.b.N.N.b.H.H.H.H.J.J.J.H.H.J.J.J.J.J.J.H.H.H.H.H.H.N.N.N.i.i.b.t.t.t.t.b.t.t.t.t.t.t.e.7.7.7.",
"e.e.e.t.b.t.b.b.b.b.b.i.b.b.b.b.b.b.b.N.N.b.b.N.H.N.J.J.J.H.H.H.H.H.H.H.H.H.H.H.H.H.H.N.N.N.t.b.b.t.t.t.t.b.t.t.t.t.e.e.e.7.7.7.",
"e.e.6.e.N.N.#X/.b.t.t.b.b.t.b.t.i.U.E.F.F.N.N.N.N.N.N.N.H.H.H.H.H.H.H.H.H.N.J.N.H.H.H.N.N.H.b.b.b.b.t.t.t.e.b.t.t.t.e.e.9.e.7.6.",
"7.4._ <.<.q.7XpX0XE.U.b.U.b.J.^.U.R.6XN.b.b.N.N.N.N.N.N.N.H.N.N.H.H.H.N.H.!.N.H.H.H.F.b.b.b.b.b.b.t.b.t.t.e.N.E.U.b.t.9.6.6.6.,.",
"E.U.t.' <.' J.rXeX8XrX0X0X/.U.6X5XR.6X^./.E.J.T.!.P.N.b.N.N.F.T.^.J.t.r.h.eXeXI.u.r.N.i.H.t.r.r.t.b.E.E.U.6.t.t.E.[.E.6.O.7.7.4.",
"V.4.E.E.@Xt.b.E.#.} -.#XqX}.E./.T.7X@X7X/.6X7XqXqX7X/.!.!.}./.^.9XU.3.<.3. X6X9.3.2.U.8.8.2.>.t.T.^.@XqXeX9XqXt.Z.rX0X[.E.@X#XW.",
"4.) U.#XeX{.[.E.} z [ v.#X[.Y.E.E.qX#XqX}./.0X/.!.E.U.E.!.7X#XW.}.U./.!.b.U./.U././.T.T.E.U.T././.E.0X0X8X@XE.U.E.@X}.W.E.W.#XE.",
"7.,.,.V.}.W.Q.E.E.x.Y.8X8X8XrX/././.8XeXqXeX8XY.E.U.U.V.U.!./.E.E.b.E.E.Y.U.Y.t.}.8.>.8.U.U.W./.T.U.U.b.U.9X/.,.,.6.6.6.6.V.@Xx.",
"Z.4.,.b.U.Y.}.W.x.U.E.@XS.@XuX9X/.b.8XrXqXqXrXqX0X#X7X!.b.6.6.4. .o.@.c.C.D.[.Q.}.E.E.Y.@X!.pXrX7X8XW.U.T.#XrX8Xb.V.S.8XE.9X9XW.",
"Q.E.V.E.E.~.E.}.Y.U.U.W./.rXrXwX}.E.W.7XM.Y.9X7XE.U.1.( ^ ( R R ! /  .@.#.#.x.c.v.S.D.[.+X#X%XqX0XeX@X}.}.W.#X#X}.}.#X#X}.}.[.}.",
"#X#X[.#X@X}.U.@XW.Y.t.E.!.}.@X6X!.P.Y.~.@X#X#XV.>.~ W I T Y Y Y U R ! / ! / ! o.#.-.c.A.].+X&X&X&XQ.}.6X/.~./.Q.#X#XQ.M.Q.Y.E.E.",
"[.W.W.[.M.Z.6.V.E.,.` :.8.U.9.b.U.Y.}.}.@X/.U.) W H H Y G G U U G U T T R R R ! ] { &.A.'.$X$X<X=X@X}.}.V.b.U.U.W.@XQ.Y.F.` ,.4.",
"b.9.6.,.` Y.}.Z.x.9.8.,.>.t.9.Y.}.8XqX#Xt.O.( Y Y G G G G D G U G G G U U T R R j j | ;._.oXOX:X<X=X%Xb.8.e.7.9.V.Q.E.Y.b.,.7.V.",
",.) ( ( >.V.8X@XQ.!.E.E.E.V.E./.W.Q.}.U.t.( Y Y G U G D D 7 7 7 7 7 7 U U f f j j b m *._.`.oXOX=X<X*XQ.U.V.E.t.e.E.Y.U.U.U.M.V.",
"Y.U.V.b.Y.Y.W./.[./.Y./.}.}./.}.E./.}.E.:.T Y G G D 7 7 7 7 7 7 9 7 9 f f g d h $.N c n (.=.;.`.$X<XtX*X/.E./.E.E.W.U.Y.Y.U.b.N.",
"E.Y.Y.Y.V.U.!.E.W.Q.!.E.E.E.U./.!./.@XN.T Y U 9 9 9 9 7 7 7 s s s 6 8 d f g d b ;._.* O M N N `.oX:X<X<X}.Y./.}././.E.!.Y.Y.U.U.",
"E.E.Y.V.V.E.E.U.V./.Q.!.V.b.b.Y.E.@X@X( G U U 7 7 7 6 6 6 6 s s s a a w d d j b *.`.i   o z %.`..XOX>XtX#XE.W.@XW.E.E.E.E.V.b.E.",
"M.M.b.V.Y.Z.E.b.9.U.!.E.U.Q.~.!.E.Q.7.Y U U f 6 a s 6 a s s a a a a w w d e p b M =.$.$.v m %.`.`..X-X<X&X~.E.E.b.U.b.E.[.Z.V.Y.",
"M.V.M.b.V.Y.E.E.E.W.6XW.E.E.~.E.T.!.R H U U s s a a 4 a a 6 a a w 4 4 0 t e p x h p z $X1X1X`.`.(.`.OX:X*XE.Y.9.F.M.V.E.8X[.}.}.",
"M.W.E.U.U.U.V.E.F.T.}.~.W.E.Y.J.U.t.G D f 6 6 a a 4 w w w w 4 4 w 4 0 0 y y y p q 2 0 -.*.'.1XOX*._.OX:X=X/.~.Y.Y.Y.Y.Q.E.M.V.E.",
"/.Q.}.Q.[.}.Y.E./.U.U.e.t.U.!.}.}./ G 7 7 6 4 a w 0 w 3 4 4 4 4 4 4 0 e y y p e q - O O + O OX>X+ k OX>X<XQ.W.E.U.^.E.E.G.U.~.~.",
"W.}.Q.E.W.U.U.U.8XQ.!.b.J.F.b.J.W.H D 7 6 6 3 0 0 0 4 2 2 0 4 0 0 0 0 e y e y e : : o X o o v OXoX; .X:X<X[.}.}.W.Y.E.}.Y.U.Z.}.",
"e.b.N.U./.~.Q.W.}.qX9X}./.}.W.t.b.H D 7 f 6 2 2 2 0 2 2 4 0 w w 0 0 q r y u p p q p O o . o + oX>XOXOX>X<X}.[.[.}.Q.E.~.Q.N.!.[.",
"U.E.}.@X[.}.}.}.}.[./.}.}.}.}.!.4.H G 7 s 4 2 : : 2 2 4 0 w e 0 0 q q r r u i h p : * .   . O (.1XoX-X,X=X}.!.U.~./.U.b.@Xb.!.W.",
"( ) ,.8.,.` ` ^.Q.8X%X8X#X@X}.Q.,.D 7 s s 4 2 : : 2 2 4 w e e e r q r r u u i z z b z O X . + (.iXOX>X,X=XY.t.U.Q.}.4XY.[.U.~.}.",
"Z A Z S L L K L K 3.8X@X8X@X}.!.! D 7 s 6 4 : - - 2 4 0 e e e e r r r u u u i z m | m b * * l `.>X-X,X1X*X!.U./.Q.Y.b.,.7.G.Z.[.",
"S K K L P P L L K K }.[.}.Y.U.t.O.D 7 a w 0 : - - 4 0 w e e y y r r u u i i c l m | M %._.=.).-X;X,X1XyX*X~.W.}.}.Z.Q.Q.Y.Q.W.S.",
"J K K K K K J S A C K #X9X7XW.#X7.H 7 s w 3 : - 3 4 w e w e y y r u u i b b b m m $.$.=.oX-X;X;X>X,X1XyX&XE./.E.}.}.Q.E.M.4. .#.",
"S S J J J S J J J C C L W r.[.0XQ.D 6 6 4 2 * 2 3 4 w d d t p j i p i c c b n M M $.*._.oX>X1X,X1X1XyXyX#XV.6.4.#.x. .E E E ! 0.",
"Z S Z Z Z A A C J J C C B V O.E.Y.F 7 7 4 - : 4 a a d d d j j j h x c c m n M M N $.=._.oX>X1X3XyXyXyX<Xc. ..... . . ./ E R ] W.",
"Z Z C C C C C A J J C B < & & H ` F 7 5 , = 4 a f f d g j j j x x h l c m M N $.N *.;.`.OX>X1XaXaXiXyX&X5. .........] X.....{ } ",
"Z C C C C A A C J A Z V < & & & & 5 5 > @ , 6 8 f f d g g j j j b h l c m $.N %.=.=._.oX>X,X3X3XsXsXyX].o. .......] ] &.@.{ [ [ ",
"S Z C C C A A J J J J V & & & & & & < > = 1 5 6 9 f d g g d j j j z b c | N N =.(.(.`.oX>X1XaXaXsXsX*Xc.@.o. .] [ ] [ ....{ ..} ",
"Z S Z C C C C C A A Z V V & & & & & % % > > 1 5 5 6 6 6 a g d d j h h m v N %.=.(.)..X-X>X1XsXsXsXyXD.@.+. .] ] { X.+...[ { @...",
"C x.A K V C S Y Q W >.Y.Y.5 H & & & $ $ % > > > 1 1 5 5 5 6 4 t y p c m v N =.(.).`.XX;X,XaXsXsXfX+X#.@.@.o.o.] } +. ...X.+.+.! ",
"b.Z.x.x.N.R ( Q I Q ) b.S.V.@Xc.< & % $ # # = = > > > 1 , 3 3 2 0 q u l n N =.(.)..X-X,X3XaXfXfX*X+X].D.@.+.+.+.+.+...} { [ [ @.",
"W.V.Z.Z. .8.9.) Q P Q 2.V.E.Q.@X].+.c.! < % @ @ @ # % 3 &.e w = - p - i l c N (.).XX;X2X3XsXsXyX<X<X*X].C.#.@.@.+.X.{ } ..X.].D.",
"o.0.#X4.) :.b.8.( ~ ( 6.8.V.E.W.W.}.{.{.v.#.! 5 .. .5 ) 6.V.Z.v.C.W.C.].+X;.=.(.).XX;X;X3XsX1XyX<XtXtXwX&X[.[.D.c.&.@.&.-.D.[.].",
"7.S.W.Y.5.,. .>.( ` :.5.6.W.V.Y.V.Q.#X@X[.W.e.W ^ W W >.) ,.}.Y.U.t.U.[.{.%XqXtX=X$XyXyXaXsXsXyXsXsXiXtX*X*XtXwX*X+X'.)..X'.'._.",
"0.x.0.x.7.5. .( ^ ( :.M.b.@XY.V.Q.[.}.W.b.) ( W I Q Q ` >.2.E.@X8.) ,.9.!.8XuXwX#X#X0X#X8X%XtXtXtXtX=XwXtXuXuX&X&X+X+X%X{.].].].",
"5.x.M.V.M.b.b.,.)  .4.b.U.Z.V.U.Y.x.9.` ( W I I I L I ^ ` ` J.9Xb.) ( ` 3./.rXqXE./.}.@XY.Y.@X@X#X#X#X+X{.#X%X#X{.D.[.[.[.].D.].",
"%XC.Y.V.S.V.Y.M.G.b.U.b.b.b.b.M.M.b.F.` ^ ~ I I K K I ~ Q Q 9.E.W.8.) ) 8.8XuXpX#XW.}.E.E.7X@XZ.}.#X%X9X#X#X|.{.#XW.C.S.%X#X[.D.",
"D.W.Z.Z.W.M.~.V.Y.E.Y.E.E.~.~.V.Z.b.6.` ` Q Q L L ^ Q W I ` 2.F.E.8.8.E.N.7X0XuXwX8X}.W./.@X8XqX8XqXrXwXwX0X#X%X9X{.#X#X&XqX0X#X",
"0.7.4.V./.V.Q.}.}.}.9X7XqX#X#X}.8XQ./.}./.:.W Q Q ~ Q P ` 2.2.>.>.2.6.F.F./.eXrXuXwX8XQ.8XqX9XrX9XqXrXqX0X9X#X@XE.}.[.{.{.qXwX+X",
"@.5.V.b.Y.Y.Y.W.}./.}.}.8X@X@X}.}.}.}.@X@X@X!.6.:.e.b.F.t.,.>.:.>.:.,.a.8.b.0XpXpXpX9X9X%XqXqXrXqXqXqX0X9X#XE.9.M.Z.W.[.S.[.{.#X",
"x.x.Y.E.E.E.Q.Q.eX}.[.}.}.}.}.|.}.}.}.#X9X8X0X8X@X8X}.}.!.M.b.U.t.,.,.8.9.b.8XdXdXuXrXqX9X0X0X8X@XQ.Q.Q./.Q.b.7.b.V.Z.W.S.Z.C.Z.",
"c.S.W.W.Q.[.}.}.}.[.}.}.}.}.@X@X@X8X8X#X8X9X0X8XqX8X4X8X@X@X~.8X}.U.U.b.Y.}.#XuXdXrX#X7X@X8X}.[.Z.!.5.M.b.Z.b.M.x.Y.c.Z.v.x.+.! "
};
