/* XPM */
static char *d1a19b6f38464092d097afb298f3f147MGAVOjTIBZTxJx2A[] = {
/* columns rows colors chars-per-pixel */
"64 64 243 2 ",
"   c #050405",
".  c #0B0606",
"X  c #060509",
"o  c #0B0709",
"O  c #0A0A0D",
"+  c #150807",
"@  c #150B0A",
"#  c #1B0C0B",
"$  c #0D0D12",
"%  c #100E13",
"&  c #141012",
"*  c #121216",
"=  c #1D1313",
"-  c #14141B",
";  c #1A171D",
":  c #17191E",
">  c #240D0B",
",  c #2A0D0A",
"<  c #350F0B",
"1  c #29120E",
"2  c #34140E",
"3  c #3C150D",
"4  c #39190E",
"5  c #271716",
"6  c #3A1913",
"7  c #171821",
"8  c #1B1B23",
"9  c #1D1E29",
"0  c #251D23",
"q  c #292120",
"w  c #23232B",
"e  c #272429",
"r  c #372827",
"t  c #3B312C",
"y  c #2B2A33",
"u  c #282935",
"i  c #372D33",
"p  c #2E303A",
"a  c #393235",
"s  c #33343D",
"d  c #44180D",
"f  c #501E0E",
"g  c #431B14",
"h  c #4A1E12",
"j  c #511F11",
"k  c #48200D",
"l  c #4C2315",
"z  c #482219",
"x  c #532414",
"c  c #562816",
"v  c #5C2A15",
"b  c #5B2C1B",
"n  c #632C17",
"m  c #67341A",
"M  c #733715",
"N  c #723A1B",
"B  c #452A24",
"V  c #552C23",
"C  c #49332A",
"Z  c #563729",
"A  c #443A37",
"S  c #4B3B34",
"D  c #523C33",
"F  c #5A3C32",
"G  c #663B27",
"H  c #733E21",
"J  c #6B3F30",
"K  c #7B411A",
"L  c #56412C",
"P  c #5C442D",
"I  c #4D4239",
"U  c #544335",
"Y  c #5C4533",
"T  c #5E4A34",
"R  c #55463B",
"E  c #59453A",
"W  c #56493C",
"Q  c #5C4B3C",
"!  c #65452C",
"~  c #6A4A2E",
"^  c #774627",
"/  c #634633",
"(  c #644B34",
")  c #6B4D33",
"_  c #63453C",
"`  c #6A4539",
"'  c #624D3B",
"]  c #6A4D3B",
"[  c #714E33",
"{  c #744838",
"}  c #6D5135",
"|  c #675439",
" . c #64513C",
".. c #6C533C",
"X. c #725235",
"o. c #72543C",
"O. c #7C5538",
"+. c #74593E",
"@. c #7A5B3E",
"#. c #383A46",
"$. c #433D45",
"%. c #4E4442",
"&. c #43434C",
"*. c #564A43",
"=. c #574B47",
"-. c #5C4D43",
";. c #5E5245",
":. c #5D524B",
">. c #474A56",
",. c #574F55",
"<. c #575356",
"1. c #664D44",
"2. c #754C44",
"3. c #655444",
"4. c #6B5543",
"5. c #675845",
"6. c #6C5A45",
"7. c #64554A",
"8. c #69564A",
"9. c #66594D",
"0. c #6C5B4B",
"q. c #735542",
"w. c #795645",
"e. c #745B44",
"r. c #7A5D44",
"t. c #735D4B",
"y. c #7A5E4A",
"u. c #665A57",
"i. c #6C5C52",
"p. c #725E52",
"a. c #7A5D53",
"s. c #6F604E",
"d. c #7B6146",
"f. c #75614C",
"g. c #7B634D",
"h. c #7B654C",
"j. c #6D6054",
"k. c #6E635A",
"l. c #746353",
"z. c #7B6553",
"x. c #7D6954",
"c. c #74655A",
"v. c #7A6559",
"b. c #76695C",
"n. c #7C6B5B",
"m. c #565863",
"M. c #6A5A60",
"N. c #6B6467",
"B. c #776867",
"V. c #7D6D61",
"C. c #77716F",
"Z. c #676A77",
"A. c #7A7675",
"S. c #82441B",
"D. c #834923",
"F. c #8A542B",
"G. c #855737",
"H. c #8A5635",
"J. c #8B613E",
"K. c #97653C",
"L. c #A7733E",
"P. c #835D48",
"I. c #855F54",
"U. c #8D6543",
"Y. c #87654A",
"T. c #83654D",
"R. c #83694E",
"E. c #946A49",
"W. c #826652",
"Q. c #846A54",
"!. c #8A6C53",
"~. c #83675B",
"^. c #836C5B",
"/. c #896E59",
"(. c #966F50",
"). c #8F7057",
"_. c #84715C",
"`. c #8C735C",
"'. c #987458",
"]. c #AB7844",
"[. c #A07857",
"{. c #836F64",
"}. c #847363",
"|. c #8B7463",
" X c #86756B",
".X c #947A66",
"XX c #887876",
"oX c #937B73",
"OX c #A17E70",
"+X c #B28253",
"@X c #918074",
"#X c #988777",
"$X c #A78767",
"%X c #A58C78",
"&X c #B0967E",
"*X c #6E7281",
"=X c #757986",
"-X c #8C7B80",
";X c #7E818C",
":X c #898383",
">X c #958B86",
",X c #868997",
"<X c #93939A",
"1X c #A49489",
"2X c #AA968F",
"3X c #B7A699",
"4X c #969AAA",
"5X c #AAA6A7",
"6X c #B6A9A6",
"7X c #B1AFB1",
"8X c #ABB2BD",
"9X c #B8B4B6",
"0X c #C5BAB5",
"qX c #AAB4C0",
"wX c #B7BAC6",
"eX c #B7C0CF",
"rX c #C9C5C9",
"tX c #D0CACE",
"yX c #C5C9D5",
"uX c #CBD2DB",
"iX c #D8D4D5",
"pX c #E3D9D6",
"aX c #E8E2DF",
"sX c #CDD5E2",
"dX c #CED9E3",
"fX c #D3DBE5",
"gX c #D8DAE4",
"hX c #D6DEE9",
"jX c #D9DEEB",
"kX c #E2DFE5",
"lX c #DCE3ED",
"zX c #DBE5ED",
"xX c #DEE5F0",
"cX c #DFE8F0",
"vX c #E3E0E5",
"bX c #E1E6EE",
"nX c #E4E9EF",
"mX c #E2E7F1",
"MX c #E5EAF2",
"NX c #E9EEF4",
"BX c #EAEEF8",
"VX c #ECF0F5",
"CX c #F1F1F6",
/* pixels */
"..) } ( 5.L T | ( ) } ( | ....} ! 6. .g.4...y.6.6.W z./ ] q.q.4.e.r.q.g.e.e.z.e.r...) U I Q ( C Y e.E 5.y.e.) / Y } ~ ( P X.[ ) ",
"..X.X.P 5.Y ' 6.' ....( ....+.} ( +...g.4.e.z.y.6.R z./ / ' ..3.e.g.e.g.e.e.Q.g.r.} / T Q  .U B / o.W.6.r.o.) ) ( ..~ ) P X.) ~ ",
"o.+.) ! Y L  .5.| | ..' ....e.} / +.6.h...6.^.f.t.W f./ G C ' S r.h.e.f.y.e.Q.R.h.) ( ' 3.T Q C ) [ z.6.+.X.) ) / o.~ } Y X.) ~ ",
"..X.( !  .L ' 4.| ) ..T ....e.} ( o.e.g.+. ._.l.6._ w.{ n z E > g.W.d.y.g.e.Q.R.h.) / ( 0.' 4.C o.[ t.4.o.[ ) ) / o.) ) ( X.) / ",
"..X.) ( 0.Y ' ..| | ..P e.e.e.o.| e.6.g.r.t.}.y.w.J ` ` V 6 W > y.W.g.f.W.e.Q.R.h.) X.) i. .q.D +.o.y.6...X.) ) / q.) ) ( ( Y L ",
"..+.} | 6.T T 6.| | ..P e.e.e.e.6.h.e.h.d.f. X2.q.1.0.' D D _ 2 e.W.h.h.x.e.Q.h.Q.+.+.( 0.4...D +.X.g.4.e.O.X.o.( ..) [ ( ../ P ",
"e.e.} ..f.T T 6.| ..o.T d.e.e.f.6.g.f.z.d.0. Xf.f.*.' / E ' 1.r e.W.W.g.z.5./.g.!.@.@...0.4...U @.X.h.5.y.@.o.o.P e.[ ) / e.o.} ",
"e...) | s.' T 6.| ..+.( f.g.r.e.6.g.f.z.f.Q V.t.e.S W P Q ..2.S e.x.W.g.Q.Q `.g.!.Y.@.r.Q.Y.P.( r.O.h.6.y.r.o.+.P e.X.~ ( Z ..} ",
"4.e.X.) f.' T 6.....+.( f.g.d.f.0.g.e.z.y.Q }.t.e.' R / Q ..q.D e.h.R.e.Q.e.`.h.!.R.r.!.U.[ Z _ r.@.h.t.y.+.q.e.P +.) ~ ( Q  .3.",
"e.r.@.o.t. .T 6.6...@.| f.h.d.l.l.f.e.f.t.' n.e.g.Q R / Q ..q.D g.W.T.e.`.e.`.W.1XV.8..XU.! 9.:XS @.Q.f.y.r.r.g./ q.} ~ ( 0...0.",
"f.g.@.+.f.3.T ..e.e.@.| g.d.d.z.l.g.d.6.y.| n.e.f.Q W ( 3...q.D h.h.R.e.^.y.`.^.rX7X3X%XJ.!.>X5X$.e.Q.f.z.r.g.g.( q.) ( ..f.e.e.",
"t.f.e.e.z.3.T | e.y.@.4.g.e.h.g.l.g.f.5.e.| n.q.y.Q R ( 8...q.F g.h.h.y.`.g.`.^.1X>X&X$Xd.+.Z  Xe u.V.g.z.T.g.g.( q.../ ] y.q.q.",
"R x.e.e.z.5.T | f.d.@.4.f.f.R.f.b.g.z.4.f...n.6.4.W *./ 0.q.o.E z.f.h.g.!.d.`.^.`.1X1X$Xh.R.V 3.= m.N.0.4.@.d.x.' o.| ! o.g.2.] ",
"u.n.g.e.z.5. ...f.d.r.6.h.f.R.z.b.f.f.4.g.4.b.3.5.R R / 5.e.r._ z.z.g.y.`.h.`.`.A.N.6X`.1X@X3.r ; 4X4Xf.y.Y.d.Q...6.4./ q.4.4.e.",
"l.V.g.f.z.5...6.l.e.@.6.h.g.R.x.b.6.t.4.e.4.n.3.0.R S / ..e.y.8.z.Q.z.g.`.d.`.`.;X=X9X`.,.C.2X5 Z.4Xm.f.t.R.y.x.5.e.o./ ] l.q.e.",
"l.V.g.f.z.0...6.f...@.6.z.g.R.z.b.3.e.e.y.3.b.8.f.-.U Y 4.4.y.i.z.W.g.R.`.h.|.|.<X4XXXrXwX%.6X= >.=X&.g.t.Q.y.h.5.4.4./ } y.o.e.",
"l.{.z.f.x.6.4.e.z.e.r.e.z.g.h.z.l.6.q.| g.4.V.0.l.7.T Y Q 0.1Xp.z.W.Q.h._.d.`.^.<X,X<.m.eX:X:X- w >.s f.6.R.r.y.4.e.+.( ..g.o.e.",
"z.}.z.e.x.t...f.z.y.r.6.z.h.h.z.l.Q ....f.3.V.0.l.e.G.O.F t 0Xa.z.W.R.W._.h.Q./.,X=X- Z.8X<.O 8 - w e 0.e.R.q.d.5.t.r.( o.g...q.",
"z.}.x.r.z.l.4.f.n.g.r.6.z.^.h.z.c. .t.| g.5.V.0.z.H.M k @ $ 5Xp.W.W.W.g.x.T.Q._.&.>.- 9 s * % 8 8 - y p.| R.r.r.6.e.r.) X.y.o.q.",
"x.}._.d.x.z.4.f.{.h.d.l.z.^.Q.z.b.8.l.4.g.5.n.0.E.M n 1 X . 7X XW.Q.h.x.z.d.Q.`.,.- * - o o - e ; - w p.4.Q.r.r.t.f.r.o.+.y.` q.",
"~.|.}.g.n.l.e.f.}.g.d.l.b.n.Q.g.b.0.l.4.g.0.V.t.H.c < # O   :X X~.h.z.Q.x.h.Q.`.%.y - y O O #.$ $ - #.l.6.t.e.d.l.l.e.o.+.g.Y y.",
"~.}.n.g.n.b.t.e._.f.d.f.n.n.Q.g.l.6.l.4.h.e.b.l.^ d > + o X o a.W.g.h./.x.g.Q.`.N.p 8 8 % O 8 $ * * w v.5.' r.d.x.t.r...r.g.1.0.",
"^.|.b.g.n.n.6.f._.f.d.t.l.~.^.g.j.0.l.4.z.t.b.~.n 3 1 > .   % c.z.g.g.`.z.R.Q.`.XXw 9 ; * % &.$ O - 9 l.0.z.@.T.x.t.d.o.d.z.E 0.",
"^._.n.r.n.n.6.z._.g.d.f.l.~._.z.l.f.0...z.0.c.`.x , # 1 #   X u.z.f.z.Q.g.R.Q.!.|.&.y w $ y O O $ * 0 z.6.T.+.T.W.0.T.+.y.t.8.l.",
"^._.z.r.n.n.6.g._.g.e.f.f.y._.x.l.6.0...z.0.j./.h > @ # # o X u.z.t.c.n.h.Q.Q.Q.W.,.$ y - 8 O $ $ - 5 g.f.T.@.d.z.0.r.o.e.4.f.l.",
"^.^.z.e.x.b.6.z.}.f.y.f.h.W._.h.z.6.5...x.0.W W.6 > @ @ + . X u.~.-.8 ,.z.h.h.x.e.c.- y % 8 O O O $ e h.l.T.@.r.h.8.y.....q.f.z.",
"W.`.z.+.z.V.0.z.}.z.d.z.R.x._.h.z.f.4...z.0.9.a.6 # @ + @ .   ; z.5 % u {.z.z.z._.|.s e O w $ X $ $ r z.f.T.P.y.R.4.r.] y.+.g.l.",
"z.Q.g.+.n.n.6.z.}.f.e.l.Q.h._.g.l.p.3.4.l.0.k.a.6 5 = . o     $ l.$ $ 7 V.f.~.z.l. X#.y * 8 * $ w * -.W.z.!.Y.Y.R.e.e.{ r...f.g.",
"g.^.g.e.V.l.6.z.|.p.4.f.Q.h.^.y.l.0.5.5.f.7.l.a.z 5 @ . . O   5 -.$ $ 8 ^.p.Q.z.n.A.#.w 8 ; * - 8 r y.W.z.Q.!.Q.Q.q.y.o.r...f.f.",
"t.n.g.y.n.p.0.l._.g.y.g.Q.h.^.e.b.0.5.6.0.7.l.y.2 > @ o       a = - - e n.l.z.h.|.@X9 p 8 $ $ s e 6 @.Q.f.R.!.Q.Q.] +.o.r.) g.t.",
"e.0.f.g.b.l.6.l.n.f.r.g.^.W.~.y.b.0.3.0.0.0.l.!.4 1 # + o     0 i 8 7 9.n.a.z.h.`. X&.w e w * * ; z G.`.f.Q.!.Q.r.o.r.q.o.] t.f.",
"e.5.f.r.l.l.6.z._.l.y.z.^.z.^.y.b.l.3.0.l.t.l.Q.l > @ + # o X = 5 ; 7 n.n.f.z.h./.C.s e w - w 7 e z U.@Xt.Q.!.r.Q.o.e...q...t.4.",
"e.5.f.e.f.l. .l.^.f.e.g.n.x.Q.g.c.t.4.0.l.f.l.z.c > # # + O X O ; $ $ ^.z.g.z.g.^.C.p ; * : - ; r Z U.%Xt.!.r.Q./.q.y.q.e.] t.t.",
"e.6.g.e.0.l. .0.x.z.e.g.n.f.Q.z.9.i.3.7.z.t.0.l.b 6 > # @ &   X $ * e ^.z.c.n.f.W. X&.; * u s w t o.(.$Xt.z.Q.Q.|.4.d.e.w.' g.t.",
"r.6.g.e.0.l.8.3.x.l.e.l.n.f.W.f.i.k.;.9.z.t.0.l.H g 1 + . @ O   X $ B.^.p.b.v.l.R.C.#.; $ s - ; r w.P.$Xa.y.!.Q.|.4.d.q.w.` a.p.",
"q.e.g.e.0.l.6.;.x.y.e.z.c.g.x.f.V.k.7.9.l.t.t.l.^ d 2 > @ #       e l.^.i.B.l.0.z.B.#.w w ; - - 5 Z (.[.0.Q.!.Q.~.4.r.r.w.` v.t.",
"o.e.f.e.0.0.5.3.z.e.e.z.c.x.Q.z.V.l.8.4.z.t.t.p.H.3 3 2 # 1 o     i z.^.8.c.l.0.g.XX$.s p e 8 8 r y.U.[.p.Q.Q.Q.~.] r.e.+.] l.t.",
"L t.t.4.5.3.3.0.z.t.e.z.l.x.^.l.n.l.8.8.l.z.0.l.H.h < , 1 + @ X   S z.~.7.c.l.g.t. X&.#.s 8 $ - e ( J.'.p.~.R.Q.Q.] r.e.q...7.:.",
"] 0.0.4. .5.3.3.z.t.e.l.l.z.^.b.n.l.8.3.z.t.p.f.G.x 2 > # = # X   D g.^.8.c.l.t.f..XN.y w y e 0 B ( G.'.l.~.R.W.W...r.e.4.1.r a ",
"L 0.0... .0.0.5.l.y.e.z.l.n.n.n.c.p.8.5.l.6.0.t.Y.v 3 > 1 > 1 + % r g.^.8.c.c.l.g..XA : w w : ; F ) O.U.g.W.Q.R.W...e.o.q.*.t i ",
"L 6.i. .3.0.1.5.l.e.e.z.p.n.l.b.l.p.3.4.l.t.t.t.U.N l 2 1 1 , 1 > = y.n.4.b.c.p.l. X:.y O w $ w C [ [ '.y.z.R.T.z.4.g.o.4.C _ 7.",
"( 0.0.'  .l.3.5.f.0.4.g.i.n.l.n.l.0.8.4.l.6.0.0.(.N l 3 2 2 3 3 g 1 a.n.3.j.l.t.f..Xu.8 e 8 - $ r V ) ).z.g.T.d.z.4.y.w.` F q.7X",
"..0.0.' ' l.i.3.t.5.4.f.k.^.l.n.i.8.3.5.0.0.0.l.+XM b z 2 g l c b l 0.n.3.j.i.p.l.|.$.- $ - $ $ * 0 r I.!.g.y.g.z. .f.^.1.q. XdX",
"..8.0.' ' 0.l.3.t.Q ' 0.j.n.l.c.i.7.*.3.0.e.0.c.].K m 6 6 3 x n H v 4.v.0.l.j.l.l. X#.$ O - 8 ; ; 8 e ` (.f.y.z.l.3.l.XXB.6XjXzX",
"..8.0.Q ' 0.0.3.0. .' 0.j.v.l.c.u.0.-.W 0.0.f.c.].K H l g x x M D.N ] v.0.i.0.s.l.}.w - O * 9 - 9 ; i F E.t.g.a.p.9.iXMXMXbXlXlX",
"4.3.8.E Q 0.8.3.5.4...0.k.l.l.j.u.6.5.E 3.3.p.n.].S.n x x x v S.S.S.{ z.p.i.7.j.c.V.w $ $ O 8 - - 9 w Z J.).t.0.C.vXMXNXmXbXzXMX",
"' Q ;.R Q 8.3.;.3.3.4.0.u.0.0.j.8.0.3.W 7.0.i.V.L.K M c b v m K F.D./ l.0.u.7.i.i.B.s - $ O w - - u w [ G.E..X#XtX>XlXnXmXlXxXmX",
"Q W -.U E 3.-.Q 3. .' 8.7.8.8.i.7.8.-.W 0.8.0.c.].M n x c v N D.S.D.` p.p.9.=.9.9.N.>.9 O * p 8 * p y X.G.G.Y.#XoXrXzXnXMXxXMXlX",
"U R W S D 3.W W Q Q W ;.;.;.3.u.;.7.%.W 8.;.0.l.].N v 3 h c ^ D.S.S.` i.i.:.%.u.:.u.#.- 8 8 #.- - 9 e X.[ O.Y.%XbXlXfXlXzXxXzXzX",
"U S S C S W W R W W E W *.=.-.8.:.-.I W -.9.0.l.L.M x g g h n N K N J 0.8.*.I ;.=.:.#.9 w * *X8 - w e ! O.!.9XbXnXhXlXMXlXhXfXfX",
"u.A a t t I I I R XXC.<XC.=.u.:.=.*.A *.-.u.-.0.L.N x g g g j n n m V :XXXN.<.N.C.u.m.9 * $ 8X9 7 u y v.oXrXNXMXbXlXNXmXhXfXsXzX",
"yX8X<XN.9X5X<XN.rXjXzXhXfXyXdXA.%.I A *.*.:.A :.K.M c 6 d d d f v j V lXzXfXfXdXfXfXqX$ O $ lXw - 9 m.gXbXmXmXmXmXNXNXMXhXfXfXlX",
"sXfXsXdXsXdXsXfXjXhXfXhXhXhXhXfXyXwX8X5XrXuXuXuXK.N b l x v f j f x G gXlXlXzXfXjXyXZ.O O - 8X#.>.<XnXNXbXmXmXbXmXMXbXzXzXfXfXfX",
"fXfXfXdXfXsXfXfXhXjXhXfXjXjXlXlXfXzXxXzXzXzXbXlXK.m b n m c n g 4 z B fXzXzXzXzXhX&.8 * y u *XZ.mXmXMXmXNXmXmXbXzXcXzXzXzXzXhXsX",
"lXzXzXsXsXsXfXhXzXjXjXzXlXmXmXmXlXlXlXlXlXzXlXlXK.c x m v b l 1 > @ 0 lXlXlXlXlXzX8X=X,XgXfXzXNXVXNXNXNXmXBXMXjXxXMXMXlXmXlXhXsX",
"jXzXhXzXhXfXfXfXhXlXlXlXlXbXbXbXmXbXbXlXlXzXlXbXG.n v c b h 2 1 = $ <XlXlXbXlXzXzXzXzXMXNXNXmXNXNXNXNXNXNXNXMXnXmXMXmXmXlXlXfXsX",
"zXzXlXzXjXzXzXlXlXzXzXlXmXNXmXMXmXnXmXbXvXbXvXpXJ.^ n n x g 1 @ O * yXlXlXlXzXxXmXNXNXMXNXNXVXMXNXNXNXVXNXNXmXNXNXNXmXmXMXzXfXMX",
"lXlXlXzXzXlXxXlXxXlXlXmXmXMXmXmXMXnXiX6X%X&X[.J.F.^ m c x 6 = % % w lXbXlXlXlXhXmXmXmXmXMXVXVXNXVXNXMXVXNXNXVXNXMXmXmXmXmXmXNXmX",
"bXbXlXlXzXlXlXlXlXbXmXgXkXiXiX0X3X2X'.F.^ F.D.M N H n b 3 2 r * - *XxXxXjXzXMXNXNXNXNXNXNXNXMXNXNXNXNXNXmXmXMXNXMXmXmXbXNXNXNXmX",
"lXxXlX7X7X5XuXgXrX5X3X{.oXOX.X'.Y.E.^ m G ^ ^ v H D.^ m l C y - 8 ;XzXfXnXNXCXNXnXVXNXNXmXNXMXmXMXNXNXMXmXmXNXmXnXMXlXbXNXNXMXbX",
"zXzXzXlXbXbXwXB._ C w.3X>X2X1X#Xo.!.` b G H ^ c F.^ ^ ! G *.9 Z.=XwXNXNXNXNXNXNXNXNXNXNXNXNXmXmXmXNXVXNXmXmXmXmXnXmXmXMXnXbXlXbX",
"mXlXlXlXlXzX4XC B N.7.-X:X}.|./..X`.q.~ m '.O.U.[ G.J.y. X5XgXbXMXNXVXNXNXVXNXVXVXNXVXVXVXNXMXmXmXNXNXMXmXmXmXMXlXnXMXlXbXhXlXbX",
"zXzXlXlXlXuX,Xi q i.M.N.B.t.r.!.$X)./ $Xq.pXaX0XiXaXiXbXmXlXNXbXNXVXVXVXVXNXNXNXNXMXNXNXVXNXmXMXmXmXMXNXmXNXmXlXMXMXzXlXlXlXbXbX",
"zXlXlXlXuXfXZ.i 5 F C C ~.T.y.1X0X6X9XrXbXmXnXnXMXNXmXNXVXNXNXVXVXNXNXmXVXNXNXNXNXNXNXVXNXNXMXmXmXnXNXmXnXmXmXbXMXMXlXlXlXlXlXmX"
};
