/* XPM */
static char *_3e845e12786479cfc0558f414b0d63ccIlj4MbpOxCyMyN1[] = {
/* columns rows colors chars-per-pixel */
"64 64 10 1 ",
"  c None",
". c #161C2E",
"X c #4F5E65",
"o c #517D7D",
"O c #639382",
"+ c #83A2AC",
"@ c #BCABA8",
"# c #E1D4BD",
"$ c #8CC3C4",
"% c #FFFCE7",
/* pixels */
"           ..........................................           ",
"         ................%%%%%.........................         ",
"        .....######%%%%%%%%%%%%%%%%%%###%%%%%#####@.....        ",
"        ...########%%%%%%%%%%%%%%%%%%###%%%%%######@@...        ",
"       ...#########%%%%%%%%%%%%%%%%%%###%%%%%#######@@...       ",
"       ...#####@@........%%%%%.................######@...       ",
"       ..####@@.........+++......................####@@..       ",
"       ..###@@.....+++++++++++$$$$$$$$$$+++++.....###@@..       ",
"       ..###@....+++++++$$+++$$$$$$$$$$$$$+++++....###@..       ",
"       ..##@@...++$++++$$$$+++$$$$$$$$$$$$$$$+++...###@..       ",
"       ..##@...$$$$$+++$$$$$$++$$$$$$$$$$$$$$++++...##@..       ",
"       ..##@...$$$$$$$$$$$$$$$+$$$$$$$$$$$$$$$+++...###..       ",
"       ..###..$$$$$$$$$$$$$$$$$$$$$$$$$$$$$$$$$$$+..###..       ",
"       ..###..$$$$$$$$$$$$$$$$$$$$$$$$$$$$$$$$$$$+..###..       ",
"       ..###..$$$$$$$$$$$$$$$$$$$$$$$$$$$$$$$$$$$$..###..       ",
"       ..###..$$$$$$$$$$$$$$$$$$$$$$$$$$$$$$$$$$$$..###..       ",
"       ..###..$$$$$$$$$$$$$$$$$$$$$$$$$$$$$$$$$$$$..###..       ",
"       ..###..$$$$$$$$$$$$$$$$$$$$$$$$$$$$$$$$$$$$..@##@.       ",
"       ..###..$$$$$$$$$$$$$$$$$$$$$$$$$$$$$$$$$$$$..@##@.       ",
"       ..###..$$$$$$$$$$$$$$$$$$$$$$$$$$$$$$$$$$$$..@##@.       ",
"       ..###..$$$$$$$$$$$$$$$$$$$$$$$$$$$$$$$$$$$$..@##@.       ",
"       ..###..$$$$$$$$$$$$$$$$$$$$$$$$$$$$$$$$$$$+..@###.       ",
"       ..###..+$$$$$$$$$$$$$$$$$$$$$$$$$$$$$$$$$$+.@@##..       ",
"       ..###..+$$$$$$$$$$$$$$$$$$$$$$$$$$$$$$$$$++.@@##..       ",
"       ..###..+$$$$$$$$$$$$$$$$$$$$$$$$$$$$$$$$$++.@@##..       ",
"       ..###..++$$$$$$$$$$$$$$$$$$$$$$$$$$$$$$$$++.@@##..       ",
"       ..###.+++$$$$$$$$$$$$$$$$$$$$$$$$$$$$$$$$$$.@@##..       ",
"       ..##@.$$$$$$$$$$$$$$$$$$$$$$$$$$$$$$$$$$$$$$@@##..       ",
"       ..##@.$$$$$$$$$$$$$$$$$$$$$$$$$$$$$$$$$$$$$$@@##..       ",
"       ..##@.$$$$$$$$$$$$$$$$$$$$$$$$$$$$$$$$$$$$$$.###..       ",
"       ..##@.$$$$$$$$$$$$$$$$$$$$$$$$$$$$$$$$$$$$$$.###..       ",
"       ..##@..$$$$$$$$$$$$$$$$$$$$$$$$$$$$$$$$$$$$$.###..       ",
"       ..##@..$$$$$$$$$$$$$$$$$$$$$$$$$$$$$$$$$$$$..###..       ",
"       .@##@..$$$$$$$$$$$$$$$$$$$$$$$$$$$$$$$$$$$$..###..       ",
"       .@##@..$$$$$$$$$$$$$$$$$$$$$$$$$$$++$$$$$$$..###..       ",
"       .@##@..$$$$$$$$$$$$$$$$$$$$$$$$$$+++$$$$$$$..###..       ",
"       .@##@..+$$$$$$$$$$$$$$$$$$$$$$$+++++$$$$$$$..###..       ",
"       .@@#@...+$$$++$$$$$$$$$$$$$$$$++++$$$$++++...###..       ",
"       ..@##...++$$+++$$$$$$$$$$$$$$$+++$$+++++++...###..       ",
"       ..@##@...+++++++$$$$$$$$$$$$$$$$$$+++++++...@###..       ",
"       ..@##@....+++++++$$$$$$$$$$$$$$$$+++++++....@###..       ",
"       ..@###@.....++++++$$$$$$$$$$$$++++++++.....@@###..       ",
"       ..@@##@@.....................+++..........@@####..       ",
"       ...@###@@@..............%%%%%%..........@@#####...       ",
"       ...@####@@@@@#%%%##%%%%%%%%%%%%%%%%%###########...       ",
"       ....##########%%%##%%%%%%%%%%%%%%%############....       ",
"       ......########%%%##%%%%%%%%%%%%%%%##########......       ",
"       ..X.....#####........................#####.....X..       ",
"       ..XXXXXoo................................ooXXXXX..       ",
"       ..XXXXXooooooooooooooooooooooooooooooooooooXXXXX..       ",
"       ..X.XXXoooooOOOOooOOOOOOOOOOOOOOooOOOOoooooXXX.X..       ",
"       ..X..XXoXXooOOOOooOOOOOOOOOOOOOOooOOOOooXXoXX..X..       ",
"        ....XXXXXoooOOOooOOOOOOOOOOOOOOooOOOoooXXXXX....        ",
"        ....XXXXXooooooooOOOOOOOOOOOOOOooooooooXXXXX....        ",
"         ......XXooooooooooo...ooooooooooooooooXX......         ",
"           ..........oooo...........ooooooo..........           ",
"                                                                ",
"                                                                ",
"                                                                ",
"                                                                ",
"                                                                ",
"                                                                ",
"                                                                ",
"                                                                "
};
