/* XPM */
static char *b4ff5aa672914ba8d0b551c85b240b1d9kdpQxsWUdkZvnS0[] = {
/* columns rows colors chars-per-pixel */
"64 64 7 1 ",
"  c None",
". c #161C2E",
"X c #4F5E65",
"o c #737F8E",
"O c #A29395",
"+ c #83A2AC",
"@ c #BCABA8",
/* pixels */
"                                                                ",
"                                                                ",
"                                                                ",
"                                                                ",
"         ..............................................         ",
"       ................@@@@@.............................       ",
"      .....@@@@@@@@@@@@@@@@@@@@@@@@@@@@@@@@@@@@@@@@@O.....      ",
"      ...@@@@@@@@@@@@@@@@@@@@@@@@@@@@@@@@@@@@@@@@@@@@OO...      ",
"     ...@@@@@@@@@@@@@@@@@@@@@@@@@@@@@@@@@@@@@@@@@@@@@@OO...     ",
"     ...@@@@@OO........@@@@@.....................@@@@@@O...     ",
"     ..@@@@OO.........ooo..........................@@@@OO..     ",
"     ..@@@OO.....ooooooooooo++++++++++++++ooooo.....@@@OO..     ",
"     ..@@@O....ooooooo++ooo+++++++++++++++++ooooo....@@@O..     ",
"     ..@@OO...oo+oooo++++ooo+++++++++++++++++++ooo...@@@O..     ",
"     ..@@O...+++++ooo++++++oo++++++++++++++++++oooo...@@O..     ",
"     ..@@O...+++++++++++++++o+++++++++++++++++++ooo...@@@..     ",
"     ..@@@..+++++++++++++++++++++++++++++++++++++++o..@@@..     ",
"     ..@@@..+++++++++++++++++++++++++++++++++++++++o..@@@..     ",
"     ..@@@..++++++++++++++++++++++++++++++++++++++++..@@@..     ",
"     ..@@@..++++++++++++++++++++++++++++++++++++++++..@@@..     ",
"     ..@@@..++++++++++++++++++++++++++++++++++++++++..@@@..     ",
"     ..@@@..++++++++++++++++++++++++++++++++++++++++..O@@O.     ",
"     ..@@@..++++++++++++++++++++++++++++++++++++++++..O@@O.     ",
"     ..@@@..++++++++++++++++++++++++++++++++++++++++..O@@O.     ",
"     ..@@@..++++++++++++++++++++++++++++++++++++++++..O@@O.     ",
"     ..@@@..+++++++++++++++++++++++++++++++++++++++o..O@@@.     ",
"     ..@@@..o++++++++++++++++++++++++++++++++++++++o.OO@@..     ",
"     ..@@@..o+++++++++++++++++++++++++++++++++++++oo.OO@@..     ",
"     ..@@@..o+++++++++++++++++++++++++++++++++++++oo.OO@@..     ",
"     ..@@@..oo++++++++++++++++++++++++++++++++++++oo.OO@@..     ",
"     ..@@@.ooo++++++++++++++++++++++++++++++++++++++.OO@@..     ",
"     ..@@O.++++++++++++++++++++++++++++++++++++++++++OO@@..     ",
"     ..@@O.++++++++++++++++++++++++++++++++++++++++++OO@@..     ",
"     ..@@O.++++++++++++++++++++++++++++++++++++++++++.@@@..     ",
"     ..@@O.++++++++++++++++++++++++++++++++++++++++++.@@@..     ",
"     ..@@O..+++++++++++++++++++++++++++++++++++++++++.@@@..     ",
"     ..@@O..++++++++++++++++++++++++++++++++++++++++..@@@..     ",
"     .O@@O..++++++++++++++++++++++++++++++++++++++++..@@@..     ",
"     .O@@O..+++++++++++++++++++++++++++++++oo+++++++..@@@..     ",
"     .O@@O..++++++++++++++++++++++++++++++ooo+++++++..@@@..     ",
"     .O@@O..o+++++++++++++++++++++++++++ooooo+++++++..@@@..     ",
"     .OO@O...o+++oo++++++++++++++++++++oooo++++oooo...@@@..     ",
"     ..O@@...oo++ooo+++++++++++++++++++ooo++ooooooo...@@@..     ",
"     ..O@@O...ooooooo++++++++++++++++++++++ooooooo...O@@@..     ",
"     ..O@@O....ooooooo++++++++++++++++++++ooooooo....O@@@..     ",
"     ..O@@@O.....oooooo++++++++++++++++oooooooo.....OO@@@..     ",
"     ..OO@@OO.........................ooo..........OO@@@@..     ",
"     ...O@@@OOO..............@@@@@@@@@@..........OO@@@@@...     ",
"     ...O@@@@OOOOO@@@@@@@@@@@@@@@@@@@@@@@@@@@@@@@@@@@@@@...     ",
"     ....@@@@@@@@@@@@@@@@@@@@@@@@@@@@@@@@@@@@@@@@@@@@@@....     ",
"     ......@@@@@@@@@@@@@@@@@@@@@@@@@@@@@@@@@@@@@@@@@@......     ",
"     ........@@@@@............................@@@@@........     ",
"      ....XXXX....................................XXXX....      ",
"      .....XXXXXXXXXXXXXXXXXXXXXXXXXXXXXXXXXXXXXXXXXX.....      ",
"       ......XXXXXXXXXXXXX...XXXXXXXXXXXXXXXXXXXXXX......       ",
"         ..........XXXX...............XXXXXXX..........         ",
"                                                                ",
"                                                                ",
"                                                                ",
"                                                                ",
"                                                                ",
"                                                                ",
"                                                                ",
"                                                                "
};
