/* XPM */
static char *acbadbf9ecee4ccaaac1cd9304f622513NUPvNurj02qdAWh[] = {
/* columns rows colors chars-per-pixel */
"64 64 6 1 ",
"  c None",
". c #161C2E",
"X c #506A69",
"o c #669D9D",
"O c #D0DEB5",
"+ c #8CC3C4",
/* pixels */
"                                                                ",
"                                                                ",
"                                                                ",
"                                                                ",
"                                                                ",
"                                                                ",
"                                                                ",
"                                                                ",
"                                                                ",
"                                                                ",
"                                                                ",
"                                                                ",
"                                                                ",
"                                                                ",
"                                                                ",
"                                 ..........                     ",
"                            .................                   ",
"                          .........+++++++....                  ",
"                       .......+++++++++++++....                 ",
"                      .....++++++++++++++++o...                 ",
"                     ...o++++++++++++++++++oo...                ",
"                    ...oo+++++++++++++++++ooo...                ",
"                   ...oooo+++++++++++++oooooo....               ",
"                   ..ooooo+++++++++++ooooooo.......             ",
"                  ...oooooooooo++++++++++oo..ooo...             ",
"                  ...+++++++++++++++++++++++++ooo...            ",
"                 ....++++++++++++++++++++++++++ooo..            ",
"                 ..XX.++++++++++++++++++++OOO++ooo...           ",
"                ..XXX.ooo+++++++++++++OOOOOO+++ooo...           ",
"                ..XXXXooooo++++++++OOOOOOOO++++oo....           ",
"               ..XXXXX.+++++++++OOOOOOOOO+++++o......           ",
"               ..XXXXX..OOO++++++++++OOO++++OO...XX..           ",
"               .XXXXXXX..OOOO+++++++OOO++OOO...XXXX...          ",
"               .XXXXXXXo.OOOOOOOOOOOOOO+++ooXX.XXXXX..          ",
"               .XXXXXXooooOOOOOOOOOOO....ooooX.XXXXX..          ",
"               ..XXXXoooooooOOOOOOOO..oooooooXXoXXXX..          ",
"               ..XXXXooooooooOOOoooooooooooXXXXooXXX..          ",
"               ...XXoooooooooOOOooooooooooooooXooXXX..          ",
"                ....ooooooooooOoooooooooooooooXoXXXX..          ",
"                 ...ooooooooooOoooooooooooooooXXXXX..           ",
"                   ..oooooooooOooooooooooooooXXXXX..            ",
"                     oooooooo.OooooooooooooooXXXX               ",
"                      ...ooo...oooooooooooooXX                  ",
"                       .........ooooooooooXXX                   ",
"                         .........oooooooo                      ",
"                            ........ooo                         ",
"                                                                ",
"                                                                ",
"                                                                ",
"                                                                ",
"                                                                ",
"                                                                ",
"                                                                ",
"                                                                ",
"                                                                ",
"                                                                ",
"                                                                ",
"                                                                ",
"                                                                ",
"                                                                ",
"                                                                ",
"                                                                ",
"                                                                ",
"                                                                "
};
